<mxfile host="app.diagrams.net" modified="2021-09-19T05:25:22.505Z" agent="5.0 (Windows NT 10.0; Win64; x64) AppleWebKit/537.36 (KHTML, like Gecko) Chrome/93.0.4577.82 Safari/537.36 Edg/93.0.961.52" etag="RmT03dCZOkZ8NUNxBf_M" version="15.2.9" type="github">
  <diagram id="_gR1zX5gCxQM_uvl26kQ" name="Page-1">
    <mxGraphModel dx="1673" dy="934" grid="1" gridSize="10" guides="1" tooltips="1" connect="1" arrows="1" fold="1" page="1" pageScale="1" pageWidth="10000" pageHeight="10000" math="0" shadow="0">
      <root>
        <mxCell id="0" />
        <mxCell id="1" parent="0" />
        <mxCell id="Qv7wDdTZeIyCimLd3heE-296" style="edgeStyle=orthogonalEdgeStyle;rounded=0;orthogonalLoop=1;jettySize=auto;html=1;entryX=0.5;entryY=0;entryDx=0;entryDy=0;dashed=1;endArrow=open;endFill=0;" edge="1" parent="1" source="Qv7wDdTZeIyCimLd3heE-1" target="Qv7wDdTZeIyCimLd3heE-49">
          <mxGeometry relative="1" as="geometry" />
        </mxCell>
        <mxCell id="Qv7wDdTZeIyCimLd3heE-298" style="edgeStyle=orthogonalEdgeStyle;rounded=0;orthogonalLoop=1;jettySize=auto;html=1;dashed=1;endArrow=open;endFill=0;" edge="1" parent="1" source="Qv7wDdTZeIyCimLd3heE-1">
          <mxGeometry relative="1" as="geometry">
            <mxPoint x="1629.9999999999995" y="621.5" as="targetPoint" />
          </mxGeometry>
        </mxCell>
        <mxCell id="Qv7wDdTZeIyCimLd3heE-300" style="edgeStyle=orthogonalEdgeStyle;rounded=0;orthogonalLoop=1;jettySize=auto;html=1;dashed=1;endArrow=open;endFill=0;" edge="1" parent="1" source="Qv7wDdTZeIyCimLd3heE-1">
          <mxGeometry relative="1" as="geometry">
            <mxPoint x="2170" y="621.5" as="targetPoint" />
          </mxGeometry>
        </mxCell>
        <mxCell id="Qv7wDdTZeIyCimLd3heE-1" value="&lt;b&gt;Paros&lt;/b&gt;" style="swimlane;fontStyle=0;align=center;verticalAlign=top;childLayout=stackLayout;horizontal=1;startSize=55;horizontalStack=0;resizeParent=1;resizeParentMax=0;resizeLast=0;collapsible=0;marginBottom=0;html=1;" vertex="1" parent="1">
          <mxGeometry x="1800" y="480" width="210" height="283" as="geometry" />
        </mxCell>
        <mxCell id="Qv7wDdTZeIyCimLd3heE-2" value="attributes" style="text;html=1;strokeColor=none;fillColor=none;align=center;verticalAlign=middle;spacingLeft=4;spacingRight=4;overflow=hidden;rotatable=0;points=[[0,0.5],[1,0.5]];portConstraint=eastwest;" vertex="1" parent="Qv7wDdTZeIyCimLd3heE-1">
          <mxGeometry y="55" width="210" height="20" as="geometry" />
        </mxCell>
        <mxCell id="Qv7wDdTZeIyCimLd3heE-222" value="&lt;u&gt;- log : Log&lt;/u&gt;" style="text;html=1;strokeColor=none;fillColor=none;align=left;verticalAlign=middle;spacingLeft=4;spacingRight=4;overflow=hidden;rotatable=0;points=[[0,0.5],[1,0.5]];portConstraint=eastwest;" vertex="1" parent="Qv7wDdTZeIyCimLd3heE-1">
          <mxGeometry y="75" width="210" height="20" as="geometry" />
        </mxCell>
        <mxCell id="Qv7wDdTZeIyCimLd3heE-223" value="&lt;u&gt;- cmdLine : CommandLine&lt;/u&gt;" style="text;html=1;strokeColor=none;fillColor=none;align=left;verticalAlign=middle;spacingLeft=4;spacingRight=4;overflow=hidden;rotatable=0;points=[[0,0.5],[1,0.5]];portConstraint=eastwest;" vertex="1" parent="Qv7wDdTZeIyCimLd3heE-1">
          <mxGeometry y="95" width="210" height="20" as="geometry" />
        </mxCell>
        <mxCell id="Qv7wDdTZeIyCimLd3heE-6" value="" style="line;strokeWidth=1;fillColor=none;align=left;verticalAlign=middle;spacingTop=-1;spacingLeft=3;spacingRight=3;rotatable=0;labelPosition=right;points=[];portConstraint=eastwest;" vertex="1" parent="Qv7wDdTZeIyCimLd3heE-1">
          <mxGeometry y="115" width="210" height="8" as="geometry" />
        </mxCell>
        <mxCell id="Qv7wDdTZeIyCimLd3heE-7" value="operations" style="text;html=1;strokeColor=none;fillColor=none;align=center;verticalAlign=middle;spacingLeft=4;spacingRight=4;overflow=hidden;rotatable=0;points=[[0,0.5],[1,0.5]];portConstraint=eastwest;" vertex="1" parent="Qv7wDdTZeIyCimLd3heE-1">
          <mxGeometry y="123" width="210" height="20" as="geometry" />
        </mxCell>
        <mxCell id="Qv7wDdTZeIyCimLd3heE-224" value="&lt;u&gt;- main(args: String[]) : void&lt;/u&gt;" style="text;html=1;strokeColor=none;fillColor=none;align=left;verticalAlign=middle;spacingLeft=4;spacingRight=4;overflow=hidden;rotatable=0;points=[[0,0.5],[1,0.5]];portConstraint=eastwest;" vertex="1" parent="Qv7wDdTZeIyCimLd3heE-1">
          <mxGeometry y="143" width="210" height="20" as="geometry" />
        </mxCell>
        <mxCell id="Qv7wDdTZeIyCimLd3heE-8" value="- init(args: String[]) : void" style="text;html=1;strokeColor=none;fillColor=none;align=left;verticalAlign=middle;spacingLeft=4;spacingRight=4;overflow=hidden;rotatable=0;points=[[0,0.5],[1,0.5]];portConstraint=eastwest;" vertex="1" parent="Qv7wDdTZeIyCimLd3heE-1">
          <mxGeometry y="163" width="210" height="20" as="geometry" />
        </mxCell>
        <mxCell id="Qv7wDdTZeIyCimLd3heE-9" value="- run() : void" style="text;html=1;strokeColor=none;fillColor=none;align=left;verticalAlign=middle;spacingLeft=4;spacingRight=4;overflow=hidden;rotatable=0;points=[[0,0.5],[1,0.5]];portConstraint=eastwest;" vertex="1" parent="Qv7wDdTZeIyCimLd3heE-1">
          <mxGeometry y="183" width="210" height="20" as="geometry" />
        </mxCell>
        <mxCell id="Qv7wDdTZeIyCimLd3heE-10" value="- runCommandLine() : void" style="text;html=1;strokeColor=none;fillColor=none;align=left;verticalAlign=middle;spacingLeft=4;spacingRight=4;overflow=hidden;rotatable=0;points=[[0,0.5],[1,0.5]];portConstraint=eastwest;" vertex="1" parent="Qv7wDdTZeIyCimLd3heE-1">
          <mxGeometry y="203" width="210" height="20" as="geometry" />
        </mxCell>
        <mxCell id="Qv7wDdTZeIyCimLd3heE-11" value="- runGUI() : void" style="text;html=1;strokeColor=none;fillColor=none;align=left;verticalAlign=middle;spacingLeft=4;spacingRight=4;overflow=hidden;rotatable=0;points=[[0,0.5],[1,0.5]];portConstraint=eastwest;" vertex="1" parent="Qv7wDdTZeIyCimLd3heE-1">
          <mxGeometry y="223" width="210" height="20" as="geometry" />
        </mxCell>
        <mxCell id="Qv7wDdTZeIyCimLd3heE-12" value="- showLicense() : void" style="text;html=1;strokeColor=none;fillColor=none;align=left;verticalAlign=middle;spacingLeft=4;spacingRight=4;overflow=hidden;rotatable=0;points=[[0,0.5],[1,0.5]];portConstraint=eastwest;" vertex="1" parent="Qv7wDdTZeIyCimLd3heE-1">
          <mxGeometry y="243" width="210" height="20" as="geometry" />
        </mxCell>
        <mxCell id="Qv7wDdTZeIyCimLd3heE-13" value="- checkUpdate() : void" style="text;html=1;strokeColor=none;fillColor=none;align=left;verticalAlign=middle;spacingLeft=4;spacingRight=4;overflow=hidden;rotatable=0;points=[[0,0.5],[1,0.5]];portConstraint=eastwest;" vertex="1" parent="Qv7wDdTZeIyCimLd3heE-1">
          <mxGeometry y="263" width="210" height="20" as="geometry" />
        </mxCell>
        <mxCell id="Qv7wDdTZeIyCimLd3heE-14" value="&lt;b&gt;Constant&lt;/b&gt;" style="swimlane;fontStyle=0;align=center;verticalAlign=top;childLayout=stackLayout;horizontal=1;startSize=55;horizontalStack=0;resizeParent=1;resizeParentMax=0;resizeLast=0;collapsible=0;marginBottom=0;html=1;" vertex="1" parent="1">
          <mxGeometry x="2170" y="480" width="270" height="363" as="geometry" />
        </mxCell>
        <mxCell id="Qv7wDdTZeIyCimLd3heE-15" value="attributes" style="text;html=1;strokeColor=none;fillColor=none;align=center;verticalAlign=middle;spacingLeft=4;spacingRight=4;overflow=hidden;rotatable=0;points=[[0,0.5],[1,0.5]];portConstraint=eastwest;" vertex="1" parent="Qv7wDdTZeIyCimLd3heE-14">
          <mxGeometry y="55" width="270" height="20" as="geometry" />
        </mxCell>
        <mxCell id="Qv7wDdTZeIyCimLd3heE-16" value="&lt;u&gt;+ PROGRAM_VERSION : String {readOnly}&lt;/u&gt;" style="text;html=1;strokeColor=none;fillColor=none;align=left;verticalAlign=middle;spacingLeft=4;spacingRight=4;overflow=hidden;rotatable=0;points=[[0,0.5],[1,0.5]];portConstraint=eastwest;" vertex="1" parent="Qv7wDdTZeIyCimLd3heE-14">
          <mxGeometry y="75" width="270" height="20" as="geometry" />
        </mxCell>
        <mxCell id="Qv7wDdTZeIyCimLd3heE-27" value="&lt;u&gt;+ PROGRAM_NAME : String {readOnly}&lt;/u&gt;" style="text;html=1;strokeColor=none;fillColor=none;align=left;verticalAlign=middle;spacingLeft=4;spacingRight=4;overflow=hidden;rotatable=0;points=[[0,0.5],[1,0.5]];portConstraint=eastwest;" vertex="1" parent="Qv7wDdTZeIyCimLd3heE-14">
          <mxGeometry y="95" width="270" height="20" as="geometry" />
        </mxCell>
        <mxCell id="Qv7wDdTZeIyCimLd3heE-28" value="&lt;u&gt;+ VERSION_TAG : long {readOnly}&lt;/u&gt;" style="text;html=1;strokeColor=none;fillColor=none;align=left;verticalAlign=middle;spacingLeft=4;spacingRight=4;overflow=hidden;rotatable=0;points=[[0,0.5],[1,0.5]];portConstraint=eastwest;" vertex="1" parent="Qv7wDdTZeIyCimLd3heE-14">
          <mxGeometry y="115" width="270" height="20" as="geometry" />
        </mxCell>
        <mxCell id="Qv7wDdTZeIyCimLd3heE-225" value="&lt;u&gt;+ instance : Constant&lt;/u&gt;" style="text;html=1;strokeColor=none;fillColor=none;align=left;verticalAlign=middle;spacingLeft=4;spacingRight=4;overflow=hidden;rotatable=0;points=[[0,0.5],[1,0.5]];portConstraint=eastwest;" vertex="1" parent="Qv7wDdTZeIyCimLd3heE-14">
          <mxGeometry y="135" width="270" height="20" as="geometry" />
        </mxCell>
        <mxCell id="Qv7wDdTZeIyCimLd3heE-226" value="&lt;u&gt;+ USER_AGENT : String&lt;/u&gt;" style="text;html=1;strokeColor=none;fillColor=none;align=left;verticalAlign=middle;spacingLeft=4;spacingRight=4;overflow=hidden;rotatable=0;points=[[0,0.5],[1,0.5]];portConstraint=eastwest;" vertex="1" parent="Qv7wDdTZeIyCimLd3heE-14">
          <mxGeometry y="155" width="270" height="20" as="geometry" />
        </mxCell>
        <mxCell id="Qv7wDdTZeIyCimLd3heE-227" value="- staticSP : boolean" style="text;html=1;strokeColor=none;fillColor=none;align=left;verticalAlign=middle;spacingLeft=4;spacingRight=4;overflow=hidden;rotatable=0;points=[[0,0.5],[1,0.5]];portConstraint=eastwest;" vertex="1" parent="Qv7wDdTZeIyCimLd3heE-14">
          <mxGeometry y="175" width="270" height="20" as="geometry" />
        </mxCell>
        <mxCell id="Qv7wDdTZeIyCimLd3heE-19" value="" style="line;strokeWidth=1;fillColor=none;align=left;verticalAlign=middle;spacingTop=-1;spacingLeft=3;spacingRight=3;rotatable=0;labelPosition=right;points=[];portConstraint=eastwest;" vertex="1" parent="Qv7wDdTZeIyCimLd3heE-14">
          <mxGeometry y="195" width="270" height="8" as="geometry" />
        </mxCell>
        <mxCell id="Qv7wDdTZeIyCimLd3heE-20" value="operations" style="text;html=1;strokeColor=none;fillColor=none;align=center;verticalAlign=middle;spacingLeft=4;spacingRight=4;overflow=hidden;rotatable=0;points=[[0,0.5],[1,0.5]];portConstraint=eastwest;" vertex="1" parent="Qv7wDdTZeIyCimLd3heE-14">
          <mxGeometry y="203" width="270" height="20" as="geometry" />
        </mxCell>
        <mxCell id="Qv7wDdTZeIyCimLd3heE-231" value="+ Constant()" style="text;html=1;strokeColor=none;fillColor=none;align=left;verticalAlign=middle;spacingLeft=4;spacingRight=4;overflow=hidden;rotatable=0;points=[[0,0.5],[1,0.5]];portConstraint=eastwest;" vertex="1" parent="Qv7wDdTZeIyCimLd3heE-14">
          <mxGeometry y="223" width="270" height="20" as="geometry" />
        </mxCell>
        <mxCell id="Qv7wDdTZeIyCimLd3heE-21" value="&lt;u&gt;+ getEyeCatcher() : String&lt;/u&gt;" style="text;html=1;strokeColor=none;fillColor=none;align=left;verticalAlign=middle;spacingLeft=4;spacingRight=4;overflow=hidden;rotatable=0;points=[[0,0.5],[1,0.5]];portConstraint=eastwest;" vertex="1" parent="Qv7wDdTZeIyCimLd3heE-14">
          <mxGeometry y="243" width="270" height="20" as="geometry" />
        </mxCell>
        <mxCell id="Qv7wDdTZeIyCimLd3heE-22" value="&lt;u&gt;+ setEyeCatcher() : void&lt;/u&gt;" style="text;html=1;strokeColor=none;fillColor=none;align=left;verticalAlign=middle;spacingLeft=4;spacingRight=4;overflow=hidden;rotatable=0;points=[[0,0.5],[1,0.5]];portConstraint=eastwest;" vertex="1" parent="Qv7wDdTZeIyCimLd3heE-14">
          <mxGeometry y="263" width="270" height="20" as="geometry" />
        </mxCell>
        <mxCell id="Qv7wDdTZeIyCimLd3heE-23" value="&lt;u&gt;+ setSP() : void&lt;/u&gt;" style="text;html=1;strokeColor=none;fillColor=none;align=left;verticalAlign=middle;spacingLeft=4;spacingRight=4;overflow=hidden;rotatable=0;points=[[0,0.5],[1,0.5]];portConstraint=eastwest;" vertex="1" parent="Qv7wDdTZeIyCimLd3heE-14">
          <mxGeometry y="283" width="270" height="20" as="geometry" />
        </mxCell>
        <mxCell id="Qv7wDdTZeIyCimLd3heE-228" value="&lt;u&gt;+ getInstance() : Constant&lt;/u&gt;" style="text;html=1;strokeColor=none;fillColor=none;align=left;verticalAlign=middle;spacingLeft=4;spacingRight=4;overflow=hidden;rotatable=0;points=[[0,0.5],[1,0.5]];portConstraint=eastwest;" vertex="1" parent="Qv7wDdTZeIyCimLd3heE-14">
          <mxGeometry y="303" width="270" height="20" as="geometry" />
        </mxCell>
        <mxCell id="Qv7wDdTZeIyCimLd3heE-229" value="&lt;u&gt;+ isWindows() : boolean&lt;/u&gt;" style="text;html=1;strokeColor=none;fillColor=none;align=left;verticalAlign=middle;spacingLeft=4;spacingRight=4;overflow=hidden;rotatable=0;points=[[0,0.5],[1,0.5]];portConstraint=eastwest;" vertex="1" parent="Qv7wDdTZeIyCimLd3heE-14">
          <mxGeometry y="323" width="270" height="20" as="geometry" />
        </mxCell>
        <mxCell id="Qv7wDdTZeIyCimLd3heE-230" value="&lt;u&gt;+ isLinux() : boolean&lt;/u&gt;" style="text;html=1;strokeColor=none;fillColor=none;align=left;verticalAlign=middle;spacingLeft=4;spacingRight=4;overflow=hidden;rotatable=0;points=[[0,0.5],[1,0.5]];portConstraint=eastwest;" vertex="1" parent="Qv7wDdTZeIyCimLd3heE-14">
          <mxGeometry y="343" width="270" height="20" as="geometry" />
        </mxCell>
        <mxCell id="Qv7wDdTZeIyCimLd3heE-29" value="&lt;b&gt;Session&lt;/b&gt;" style="swimlane;fontStyle=0;align=center;verticalAlign=top;childLayout=stackLayout;horizontal=1;startSize=55;horizontalStack=0;resizeParent=1;resizeParentMax=0;resizeLast=0;collapsible=0;marginBottom=0;html=1;" vertex="1" parent="1">
          <mxGeometry x="2170" y="900" width="270" height="423" as="geometry" />
        </mxCell>
        <mxCell id="Qv7wDdTZeIyCimLd3heE-30" value="attributes" style="text;html=1;strokeColor=none;fillColor=none;align=center;verticalAlign=middle;spacingLeft=4;spacingRight=4;overflow=hidden;rotatable=0;points=[[0,0.5],[1,0.5]];portConstraint=eastwest;" vertex="1" parent="Qv7wDdTZeIyCimLd3heE-29">
          <mxGeometry y="55" width="270" height="20" as="geometry" />
        </mxCell>
        <mxCell id="Qv7wDdTZeIyCimLd3heE-31" value="&lt;u&gt;+ ROOT : String {readOnly}&lt;/u&gt;" style="text;html=1;strokeColor=none;fillColor=none;align=left;verticalAlign=middle;spacingLeft=4;spacingRight=4;overflow=hidden;rotatable=0;points=[[0,0.5],[1,0.5]];portConstraint=eastwest;" vertex="1" parent="Qv7wDdTZeIyCimLd3heE-29">
          <mxGeometry y="75" width="270" height="20" as="geometry" />
        </mxCell>
        <mxCell id="Qv7wDdTZeIyCimLd3heE-32" value="&lt;u&gt;+ SESSION_DESC : String {readOnly}&lt;/u&gt;" style="text;html=1;strokeColor=none;fillColor=none;align=left;verticalAlign=middle;spacingLeft=4;spacingRight=4;overflow=hidden;rotatable=0;points=[[0,0.5],[1,0.5]];portConstraint=eastwest;" vertex="1" parent="Qv7wDdTZeIyCimLd3heE-29">
          <mxGeometry y="95" width="270" height="20" as="geometry" />
        </mxCell>
        <mxCell id="Qv7wDdTZeIyCimLd3heE-232" value="+ model : Model" style="text;html=1;strokeColor=none;fillColor=none;align=left;verticalAlign=middle;spacingLeft=4;spacingRight=4;overflow=hidden;rotatable=0;points=[[0,0.5],[1,0.5]];portConstraint=eastwest;" vertex="1" parent="Qv7wDdTZeIyCimLd3heE-29">
          <mxGeometry y="115" width="270" height="20" as="geometry" />
        </mxCell>
        <mxCell id="Qv7wDdTZeIyCimLd3heE-33" value="- fileName : String" style="text;html=1;strokeColor=none;fillColor=none;align=left;verticalAlign=middle;spacingLeft=4;spacingRight=4;overflow=hidden;rotatable=0;points=[[0,0.5],[1,0.5]];portConstraint=eastwest;" vertex="1" parent="Qv7wDdTZeIyCimLd3heE-29">
          <mxGeometry y="135" width="270" height="20" as="geometry" />
        </mxCell>
        <mxCell id="Qv7wDdTZeIyCimLd3heE-233" value="- sessionId : long" style="text;html=1;strokeColor=none;fillColor=none;align=left;verticalAlign=middle;spacingLeft=4;spacingRight=4;overflow=hidden;rotatable=0;points=[[0,0.5],[1,0.5]];portConstraint=eastwest;" vertex="1" parent="Qv7wDdTZeIyCimLd3heE-29">
          <mxGeometry y="155" width="270" height="20" as="geometry" />
        </mxCell>
        <mxCell id="Qv7wDdTZeIyCimLd3heE-235" value="- sessionName : String" style="text;html=1;strokeColor=none;fillColor=none;align=left;verticalAlign=middle;spacingLeft=4;spacingRight=4;overflow=hidden;rotatable=0;points=[[0,0.5],[1,0.5]];portConstraint=eastwest;" vertex="1" parent="Qv7wDdTZeIyCimLd3heE-29">
          <mxGeometry y="175" width="270" height="20" as="geometry" />
        </mxCell>
        <mxCell id="Qv7wDdTZeIyCimLd3heE-234" value="- siteTree : SiteMap" style="text;html=1;strokeColor=none;fillColor=none;align=left;verticalAlign=middle;spacingLeft=4;spacingRight=4;overflow=hidden;rotatable=0;points=[[0,0.5],[1,0.5]];portConstraint=eastwest;" vertex="1" parent="Qv7wDdTZeIyCimLd3heE-29">
          <mxGeometry y="195" width="270" height="20" as="geometry" />
        </mxCell>
        <mxCell id="Qv7wDdTZeIyCimLd3heE-34" value="" style="line;strokeWidth=1;fillColor=none;align=left;verticalAlign=middle;spacingTop=-1;spacingLeft=3;spacingRight=3;rotatable=0;labelPosition=right;points=[];portConstraint=eastwest;" vertex="1" parent="Qv7wDdTZeIyCimLd3heE-29">
          <mxGeometry y="215" width="270" height="8" as="geometry" />
        </mxCell>
        <mxCell id="Qv7wDdTZeIyCimLd3heE-35" value="operations" style="text;html=1;strokeColor=none;fillColor=none;align=center;verticalAlign=middle;spacingLeft=4;spacingRight=4;overflow=hidden;rotatable=0;points=[[0,0.5],[1,0.5]];portConstraint=eastwest;" vertex="1" parent="Qv7wDdTZeIyCimLd3heE-29">
          <mxGeometry y="223" width="270" height="20" as="geometry" />
        </mxCell>
        <mxCell id="Qv7wDdTZeIyCimLd3heE-36" value="+ Session(model : Model)" style="text;html=1;strokeColor=none;fillColor=none;align=left;verticalAlign=middle;spacingLeft=4;spacingRight=4;overflow=hidden;rotatable=0;points=[[0,0.5],[1,0.5]];portConstraint=eastwest;" vertex="1" parent="Qv7wDdTZeIyCimLd3heE-29">
          <mxGeometry y="243" width="270" height="20" as="geometry" />
        </mxCell>
        <mxCell id="Qv7wDdTZeIyCimLd3heE-37" value="+ setSessionId(sessionId : long)" style="text;html=1;strokeColor=none;fillColor=none;align=left;verticalAlign=middle;spacingLeft=4;spacingRight=4;overflow=hidden;rotatable=0;points=[[0,0.5],[1,0.5]];portConstraint=eastwest;" vertex="1" parent="Qv7wDdTZeIyCimLd3heE-29">
          <mxGeometry y="263" width="270" height="20" as="geometry" />
        </mxCell>
        <mxCell id="Qv7wDdTZeIyCimLd3heE-236" value="+ setSessionName(sessionId : long)" style="text;html=1;strokeColor=none;fillColor=none;align=left;verticalAlign=middle;spacingLeft=4;spacingRight=4;overflow=hidden;rotatable=0;points=[[0,0.5],[1,0.5]];portConstraint=eastwest;" vertex="1" parent="Qv7wDdTZeIyCimLd3heE-29">
          <mxGeometry y="283" width="270" height="20" as="geometry" />
        </mxCell>
        <mxCell id="Qv7wDdTZeIyCimLd3heE-237" value="+ discard() : void" style="text;html=1;strokeColor=none;fillColor=none;align=left;verticalAlign=middle;spacingLeft=4;spacingRight=4;overflow=hidden;rotatable=0;points=[[0,0.5],[1,0.5]];portConstraint=eastwest;" vertex="1" parent="Qv7wDdTZeIyCimLd3heE-29">
          <mxGeometry y="303" width="270" height="20" as="geometry" />
        </mxCell>
        <mxCell id="Qv7wDdTZeIyCimLd3heE-238" value="+ isNewState() : boolean" style="text;html=1;strokeColor=none;fillColor=none;align=left;verticalAlign=middle;spacingLeft=4;spacingRight=4;overflow=hidden;rotatable=0;points=[[0,0.5],[1,0.5]];portConstraint=eastwest;" vertex="1" parent="Qv7wDdTZeIyCimLd3heE-29">
          <mxGeometry y="323" width="270" height="20" as="geometry" />
        </mxCell>
        <mxCell id="Qv7wDdTZeIyCimLd3heE-38" value="+ getSessionId() : long" style="text;html=1;strokeColor=none;fillColor=none;align=left;verticalAlign=middle;spacingLeft=4;spacingRight=4;overflow=hidden;rotatable=0;points=[[0,0.5],[1,0.5]];portConstraint=eastwest;" vertex="1" parent="Qv7wDdTZeIyCimLd3heE-29">
          <mxGeometry y="343" width="270" height="20" as="geometry" />
        </mxCell>
        <mxCell id="Qv7wDdTZeIyCimLd3heE-239" value="+ getSiteTree() : SiteMap" style="text;html=1;strokeColor=none;fillColor=none;align=left;verticalAlign=middle;spacingLeft=4;spacingRight=4;overflow=hidden;rotatable=0;points=[[0,0.5],[1,0.5]];portConstraint=eastwest;" vertex="1" parent="Qv7wDdTZeIyCimLd3heE-29">
          <mxGeometry y="363" width="270" height="20" as="geometry" />
        </mxCell>
        <mxCell id="Qv7wDdTZeIyCimLd3heE-240" value="+ getSessionName() : String" style="text;html=1;strokeColor=none;fillColor=none;align=left;verticalAlign=middle;spacingLeft=4;spacingRight=4;overflow=hidden;rotatable=0;points=[[0,0.5],[1,0.5]];portConstraint=eastwest;" vertex="1" parent="Qv7wDdTZeIyCimLd3heE-29">
          <mxGeometry y="383" width="270" height="20" as="geometry" />
        </mxCell>
        <mxCell id="Qv7wDdTZeIyCimLd3heE-241" value="+ save(fileName : String) : void" style="text;html=1;strokeColor=none;fillColor=none;align=left;verticalAlign=middle;spacingLeft=4;spacingRight=4;overflow=hidden;rotatable=0;points=[[0,0.5],[1,0.5]];portConstraint=eastwest;" vertex="1" parent="Qv7wDdTZeIyCimLd3heE-29">
          <mxGeometry y="403" width="270" height="20" as="geometry" />
        </mxCell>
        <mxCell id="Qv7wDdTZeIyCimLd3heE-39" value="&lt;b&gt;FilmXML&lt;/b&gt;" style="swimlane;fontStyle=0;align=center;verticalAlign=top;childLayout=stackLayout;horizontal=1;startSize=55;horizontalStack=0;resizeParent=1;resizeParentMax=0;resizeLast=0;collapsible=0;marginBottom=0;html=1;" vertex="1" parent="1">
          <mxGeometry x="2570" y="1100" width="270" height="223" as="geometry" />
        </mxCell>
        <mxCell id="Qv7wDdTZeIyCimLd3heE-40" value="attributes" style="text;html=1;strokeColor=none;fillColor=none;align=center;verticalAlign=middle;spacingLeft=4;spacingRight=4;overflow=hidden;rotatable=0;points=[[0,0.5],[1,0.5]];portConstraint=eastwest;" vertex="1" parent="Qv7wDdTZeIyCimLd3heE-39">
          <mxGeometry y="55" width="270" height="20" as="geometry" />
        </mxCell>
        <mxCell id="Qv7wDdTZeIyCimLd3heE-41" value="# doc : Document" style="text;html=1;strokeColor=none;fillColor=none;align=left;verticalAlign=middle;spacingLeft=4;spacingRight=4;overflow=hidden;rotatable=0;points=[[0,0.5],[1,0.5]];portConstraint=eastwest;" vertex="1" parent="Qv7wDdTZeIyCimLd3heE-39">
          <mxGeometry y="75" width="270" height="20" as="geometry" />
        </mxCell>
        <mxCell id="Qv7wDdTZeIyCimLd3heE-42" value="# docBuilder : DocumentBuilder" style="text;html=1;strokeColor=none;fillColor=none;align=left;verticalAlign=middle;spacingLeft=4;spacingRight=4;overflow=hidden;rotatable=0;points=[[0,0.5],[1,0.5]];portConstraint=eastwest;" vertex="1" parent="Qv7wDdTZeIyCimLd3heE-39">
          <mxGeometry y="95" width="270" height="20" as="geometry" />
        </mxCell>
        <mxCell id="Qv7wDdTZeIyCimLd3heE-43" value="# docBuilderFactory : DocumentBuilderFactory" style="text;html=1;strokeColor=none;fillColor=none;align=left;verticalAlign=middle;spacingLeft=4;spacingRight=4;overflow=hidden;rotatable=0;points=[[0,0.5],[1,0.5]];portConstraint=eastwest;" vertex="1" parent="Qv7wDdTZeIyCimLd3heE-39">
          <mxGeometry y="115" width="270" height="20" as="geometry" />
        </mxCell>
        <mxCell id="Qv7wDdTZeIyCimLd3heE-44" value="" style="line;strokeWidth=1;fillColor=none;align=left;verticalAlign=middle;spacingTop=-1;spacingLeft=3;spacingRight=3;rotatable=0;labelPosition=right;points=[];portConstraint=eastwest;" vertex="1" parent="Qv7wDdTZeIyCimLd3heE-39">
          <mxGeometry y="135" width="270" height="8" as="geometry" />
        </mxCell>
        <mxCell id="Qv7wDdTZeIyCimLd3heE-45" value="operations" style="text;html=1;strokeColor=none;fillColor=none;align=center;verticalAlign=middle;spacingLeft=4;spacingRight=4;overflow=hidden;rotatable=0;points=[[0,0.5],[1,0.5]];portConstraint=eastwest;" vertex="1" parent="Qv7wDdTZeIyCimLd3heE-39">
          <mxGeometry y="143" width="270" height="20" as="geometry" />
        </mxCell>
        <mxCell id="Qv7wDdTZeIyCimLd3heE-46" value="+ FileXML()" style="text;html=1;strokeColor=none;fillColor=none;align=left;verticalAlign=middle;spacingLeft=4;spacingRight=4;overflow=hidden;rotatable=0;points=[[0,0.5],[1,0.5]];portConstraint=eastwest;" vertex="1" parent="Qv7wDdTZeIyCimLd3heE-39">
          <mxGeometry y="163" width="270" height="20" as="geometry" />
        </mxCell>
        <mxCell id="Qv7wDdTZeIyCimLd3heE-47" value="+ getDocument() : Document" style="text;html=1;strokeColor=none;fillColor=none;align=left;verticalAlign=middle;spacingLeft=4;spacingRight=4;overflow=hidden;rotatable=0;points=[[0,0.5],[1,0.5]];portConstraint=eastwest;" vertex="1" parent="Qv7wDdTZeIyCimLd3heE-39">
          <mxGeometry y="183" width="270" height="20" as="geometry" />
        </mxCell>
        <mxCell id="Qv7wDdTZeIyCimLd3heE-48" value="# getElement() : Element" style="text;html=1;strokeColor=none;fillColor=none;align=left;verticalAlign=middle;spacingLeft=4;spacingRight=4;overflow=hidden;rotatable=0;points=[[0,0.5],[1,0.5]];portConstraint=eastwest;" vertex="1" parent="Qv7wDdTZeIyCimLd3heE-39">
          <mxGeometry y="203" width="270" height="20" as="geometry" />
        </mxCell>
        <mxCell id="Qv7wDdTZeIyCimLd3heE-302" style="edgeStyle=orthogonalEdgeStyle;rounded=0;orthogonalLoop=1;jettySize=auto;html=1;entryX=0.5;entryY=0;entryDx=0;entryDy=0;endArrow=diamondThin;endFill=0;" edge="1" parent="1" source="Qv7wDdTZeIyCimLd3heE-49" target="Qv7wDdTZeIyCimLd3heE-59">
          <mxGeometry relative="1" as="geometry" />
        </mxCell>
        <mxCell id="Qv7wDdTZeIyCimLd3heE-303" style="edgeStyle=orthogonalEdgeStyle;rounded=0;orthogonalLoop=1;jettySize=auto;html=1;endArrow=diamondThin;endFill=0;" edge="1" parent="1" source="Qv7wDdTZeIyCimLd3heE-49">
          <mxGeometry relative="1" as="geometry">
            <mxPoint x="1630" y="1042" as="targetPoint" />
          </mxGeometry>
        </mxCell>
        <mxCell id="Qv7wDdTZeIyCimLd3heE-306" style="edgeStyle=orthogonalEdgeStyle;rounded=0;orthogonalLoop=1;jettySize=auto;html=1;endArrow=open;endFill=0;startArrow=open;startFill=0;" edge="1" parent="1" source="Qv7wDdTZeIyCimLd3heE-49">
          <mxGeometry relative="1" as="geometry">
            <mxPoint x="2170" y="1042" as="targetPoint" />
          </mxGeometry>
        </mxCell>
        <mxCell id="Qv7wDdTZeIyCimLd3heE-49" value="&lt;b&gt;Model&lt;/b&gt;" style="swimlane;fontStyle=0;align=center;verticalAlign=top;childLayout=stackLayout;horizontal=1;startSize=55;horizontalStack=0;resizeParent=1;resizeParentMax=0;resizeLast=0;collapsible=0;marginBottom=0;html=1;" vertex="1" parent="1">
          <mxGeometry x="1770" y="900" width="270" height="283" as="geometry" />
        </mxCell>
        <mxCell id="Qv7wDdTZeIyCimLd3heE-50" value="attributes" style="text;html=1;strokeColor=none;fillColor=none;align=center;verticalAlign=middle;spacingLeft=4;spacingRight=4;overflow=hidden;rotatable=0;points=[[0,0.5],[1,0.5]];portConstraint=eastwest;" vertex="1" parent="Qv7wDdTZeIyCimLd3heE-49">
          <mxGeometry y="55" width="270" height="20" as="geometry" />
        </mxCell>
        <mxCell id="Qv7wDdTZeIyCimLd3heE-51" value="&lt;u&gt;- model : Model&lt;/u&gt;" style="text;html=1;strokeColor=none;fillColor=none;align=left;verticalAlign=middle;spacingLeft=4;spacingRight=4;overflow=hidden;rotatable=0;points=[[0,0.5],[1,0.5]];portConstraint=eastwest;" vertex="1" parent="Qv7wDdTZeIyCimLd3heE-49">
          <mxGeometry y="75" width="270" height="20" as="geometry" />
        </mxCell>
        <mxCell id="Qv7wDdTZeIyCimLd3heE-52" value="&lt;u&gt;- DBNAME_TEMPLATE : String&lt;/u&gt;" style="text;html=1;strokeColor=none;fillColor=none;align=left;verticalAlign=middle;spacingLeft=4;spacingRight=4;overflow=hidden;rotatable=0;points=[[0,0.5],[1,0.5]];portConstraint=eastwest;" vertex="1" parent="Qv7wDdTZeIyCimLd3heE-49">
          <mxGeometry y="95" width="270" height="20" as="geometry" />
        </mxCell>
        <mxCell id="Qv7wDdTZeIyCimLd3heE-53" value="- DBNAME_UNTITLED : String" style="text;html=1;strokeColor=none;fillColor=none;align=left;verticalAlign=middle;spacingLeft=4;spacingRight=4;overflow=hidden;rotatable=0;points=[[0,0.5],[1,0.5]];portConstraint=eastwest;" vertex="1" parent="Qv7wDdTZeIyCimLd3heE-49">
          <mxGeometry y="115" width="270" height="20" as="geometry" />
        </mxCell>
        <mxCell id="Qv7wDdTZeIyCimLd3heE-54" value="" style="line;strokeWidth=1;fillColor=none;align=left;verticalAlign=middle;spacingTop=-1;spacingLeft=3;spacingRight=3;rotatable=0;labelPosition=right;points=[];portConstraint=eastwest;" vertex="1" parent="Qv7wDdTZeIyCimLd3heE-49">
          <mxGeometry y="135" width="270" height="8" as="geometry" />
        </mxCell>
        <mxCell id="Qv7wDdTZeIyCimLd3heE-55" value="operations" style="text;html=1;strokeColor=none;fillColor=none;align=center;verticalAlign=middle;spacingLeft=4;spacingRight=4;overflow=hidden;rotatable=0;points=[[0,0.5],[1,0.5]];portConstraint=eastwest;" vertex="1" parent="Qv7wDdTZeIyCimLd3heE-49">
          <mxGeometry y="143" width="270" height="20" as="geometry" />
        </mxCell>
        <mxCell id="Qv7wDdTZeIyCimLd3heE-242" value="+ Model()" style="text;html=1;strokeColor=none;fillColor=none;align=left;verticalAlign=middle;spacingLeft=4;spacingRight=4;overflow=hidden;rotatable=0;points=[[0,0.5],[1,0.5]];portConstraint=eastwest;" vertex="1" parent="Qv7wDdTZeIyCimLd3heE-49">
          <mxGeometry y="163" width="270" height="20" as="geometry" />
        </mxCell>
        <mxCell id="Qv7wDdTZeIyCimLd3heE-58" value="+ init() : void" style="text;html=1;strokeColor=none;fillColor=none;align=left;verticalAlign=middle;spacingLeft=4;spacingRight=4;overflow=hidden;rotatable=0;points=[[0,0.5],[1,0.5]];portConstraint=eastwest;" vertex="1" parent="Qv7wDdTZeIyCimLd3heE-49">
          <mxGeometry y="183" width="270" height="20" as="geometry" />
        </mxCell>
        <mxCell id="Qv7wDdTZeIyCimLd3heE-56" value="+ getDb() : Database" style="text;html=1;strokeColor=none;fillColor=none;align=left;verticalAlign=middle;spacingLeft=4;spacingRight=4;overflow=hidden;rotatable=0;points=[[0,0.5],[1,0.5]];portConstraint=eastwest;" vertex="1" parent="Qv7wDdTZeIyCimLd3heE-49">
          <mxGeometry y="203" width="270" height="20" as="geometry" />
        </mxCell>
        <mxCell id="Qv7wDdTZeIyCimLd3heE-57" value="+ getSingleton() : Model" style="text;html=1;strokeColor=none;fillColor=none;align=left;verticalAlign=middle;spacingLeft=4;spacingRight=4;overflow=hidden;rotatable=0;points=[[0,0.5],[1,0.5]];portConstraint=eastwest;" vertex="1" parent="Qv7wDdTZeIyCimLd3heE-49">
          <mxGeometry y="223" width="270" height="20" as="geometry" />
        </mxCell>
        <mxCell id="Qv7wDdTZeIyCimLd3heE-243" value="+ getSession() : Session" style="text;html=1;strokeColor=none;fillColor=none;align=left;verticalAlign=middle;spacingLeft=4;spacingRight=4;overflow=hidden;rotatable=0;points=[[0,0.5],[1,0.5]];portConstraint=eastwest;" vertex="1" parent="Qv7wDdTZeIyCimLd3heE-49">
          <mxGeometry y="243" width="270" height="20" as="geometry" />
        </mxCell>
        <mxCell id="Qv7wDdTZeIyCimLd3heE-256" value="+ setSession(paramSession : Session) : void" style="text;html=1;strokeColor=none;fillColor=none;align=left;verticalAlign=middle;spacingLeft=4;spacingRight=4;overflow=hidden;rotatable=0;points=[[0,0.5],[1,0.5]];portConstraint=eastwest;" vertex="1" parent="Qv7wDdTZeIyCimLd3heE-49">
          <mxGeometry y="263" width="270" height="20" as="geometry" />
        </mxCell>
        <mxCell id="Qv7wDdTZeIyCimLd3heE-59" value="&lt;b&gt;Database&lt;/b&gt;" style="swimlane;fontStyle=0;align=center;verticalAlign=top;childLayout=stackLayout;horizontal=1;startSize=55;horizontalStack=0;resizeParent=1;resizeParentMax=0;resizeLast=0;collapsible=0;marginBottom=0;html=1;" vertex="1" parent="1">
          <mxGeometry x="1770" y="1240" width="270" height="243" as="geometry" />
        </mxCell>
        <mxCell id="Qv7wDdTZeIyCimLd3heE-60" value="attributes" style="text;html=1;strokeColor=none;fillColor=none;align=center;verticalAlign=middle;spacingLeft=4;spacingRight=4;overflow=hidden;rotatable=0;points=[[0,0.5],[1,0.5]];portConstraint=eastwest;" vertex="1" parent="Qv7wDdTZeIyCimLd3heE-59">
          <mxGeometry y="55" width="270" height="20" as="geometry" />
        </mxCell>
        <mxCell id="Qv7wDdTZeIyCimLd3heE-61" value="&lt;u&gt;- database : Database&lt;/u&gt;" style="text;html=1;strokeColor=none;fillColor=none;align=left;verticalAlign=middle;spacingLeft=4;spacingRight=4;overflow=hidden;rotatable=0;points=[[0,0.5],[1,0.5]];portConstraint=eastwest;" vertex="1" parent="Qv7wDdTZeIyCimLd3heE-59">
          <mxGeometry y="75" width="270" height="20" as="geometry" />
        </mxCell>
        <mxCell id="Qv7wDdTZeIyCimLd3heE-62" value="- databaseServer : DatabaseServer" style="text;html=1;strokeColor=none;fillColor=none;align=left;verticalAlign=middle;spacingLeft=4;spacingRight=4;overflow=hidden;rotatable=0;points=[[0,0.5],[1,0.5]];portConstraint=eastwest;" vertex="1" parent="Qv7wDdTZeIyCimLd3heE-59">
          <mxGeometry y="95" width="270" height="20" as="geometry" />
        </mxCell>
        <mxCell id="Qv7wDdTZeIyCimLd3heE-63" value="- listenerList : Vector" style="text;html=1;strokeColor=none;fillColor=none;align=left;verticalAlign=middle;spacingLeft=4;spacingRight=4;overflow=hidden;rotatable=0;points=[[0,0.5],[1,0.5]];portConstraint=eastwest;" vertex="1" parent="Qv7wDdTZeIyCimLd3heE-59">
          <mxGeometry y="115" width="270" height="20" as="geometry" />
        </mxCell>
        <mxCell id="Qv7wDdTZeIyCimLd3heE-64" value="" style="line;strokeWidth=1;fillColor=none;align=left;verticalAlign=middle;spacingTop=-1;spacingLeft=3;spacingRight=3;rotatable=0;labelPosition=right;points=[];portConstraint=eastwest;" vertex="1" parent="Qv7wDdTZeIyCimLd3heE-59">
          <mxGeometry y="135" width="270" height="8" as="geometry" />
        </mxCell>
        <mxCell id="Qv7wDdTZeIyCimLd3heE-65" value="operations" style="text;html=1;strokeColor=none;fillColor=none;align=center;verticalAlign=middle;spacingLeft=4;spacingRight=4;overflow=hidden;rotatable=0;points=[[0,0.5],[1,0.5]];portConstraint=eastwest;" vertex="1" parent="Qv7wDdTZeIyCimLd3heE-59">
          <mxGeometry y="143" width="270" height="20" as="geometry" />
        </mxCell>
        <mxCell id="Qv7wDdTZeIyCimLd3heE-66" value="+ Database()" style="text;html=1;strokeColor=none;fillColor=none;align=left;verticalAlign=middle;spacingLeft=4;spacingRight=4;overflow=hidden;rotatable=0;points=[[0,0.5],[1,0.5]];portConstraint=eastwest;" vertex="1" parent="Qv7wDdTZeIyCimLd3heE-59">
          <mxGeometry y="163" width="270" height="20" as="geometry" />
        </mxCell>
        <mxCell id="Qv7wDdTZeIyCimLd3heE-67" value="+ getDatabaseServer() : DatabaseServer" style="text;html=1;strokeColor=none;fillColor=none;align=left;verticalAlign=middle;spacingLeft=4;spacingRight=4;overflow=hidden;rotatable=0;points=[[0,0.5],[1,0.5]];portConstraint=eastwest;" vertex="1" parent="Qv7wDdTZeIyCimLd3heE-59">
          <mxGeometry y="183" width="270" height="20" as="geometry" />
        </mxCell>
        <mxCell id="Qv7wDdTZeIyCimLd3heE-68" value="- setDatabaseServer() : void" style="text;html=1;strokeColor=none;fillColor=none;align=left;verticalAlign=middle;spacingLeft=4;spacingRight=4;overflow=hidden;rotatable=0;points=[[0,0.5],[1,0.5]];portConstraint=eastwest;" vertex="1" parent="Qv7wDdTZeIyCimLd3heE-59">
          <mxGeometry y="203" width="270" height="20" as="geometry" />
        </mxCell>
        <mxCell id="Qv7wDdTZeIyCimLd3heE-257" value="+ getTableHistory() : TableHistory" style="text;html=1;strokeColor=none;fillColor=none;align=left;verticalAlign=middle;spacingLeft=4;spacingRight=4;overflow=hidden;rotatable=0;points=[[0,0.5],[1,0.5]];portConstraint=eastwest;" vertex="1" parent="Qv7wDdTZeIyCimLd3heE-59">
          <mxGeometry y="223" width="270" height="20" as="geometry" />
        </mxCell>
        <mxCell id="Qv7wDdTZeIyCimLd3heE-308" style="edgeStyle=orthogonalEdgeStyle;rounded=0;orthogonalLoop=1;jettySize=auto;html=1;entryX=0.5;entryY=0;entryDx=0;entryDy=0;startArrow=none;startFill=0;endArrow=open;endFill=0;dashed=1;" edge="1" parent="1" source="Qv7wDdTZeIyCimLd3heE-69" target="Qv7wDdTZeIyCimLd3heE-29">
          <mxGeometry relative="1" as="geometry">
            <Array as="points">
              <mxPoint x="1460" y="870" />
              <mxPoint x="2305" y="870" />
            </Array>
          </mxGeometry>
        </mxCell>
        <mxCell id="Qv7wDdTZeIyCimLd3heE-315" style="edgeStyle=orthogonalEdgeStyle;rounded=0;orthogonalLoop=1;jettySize=auto;html=1;entryX=0.144;entryY=0.008;entryDx=0;entryDy=0;entryPerimeter=0;startArrow=none;startFill=0;endArrow=diamondThin;endFill=0;" edge="1" parent="1" source="Qv7wDdTZeIyCimLd3heE-69" target="Qv7wDdTZeIyCimLd3heE-151">
          <mxGeometry relative="1" as="geometry">
            <Array as="points">
              <mxPoint x="1192" y="632" />
            </Array>
          </mxGeometry>
        </mxCell>
        <mxCell id="Qv7wDdTZeIyCimLd3heE-323" style="edgeStyle=orthogonalEdgeStyle;rounded=0;orthogonalLoop=1;jettySize=auto;html=1;entryX=0.5;entryY=0;entryDx=0;entryDy=0;startArrow=diamondThin;startFill=1;endArrow=none;endFill=0;" edge="1" parent="1" source="Qv7wDdTZeIyCimLd3heE-69" target="Qv7wDdTZeIyCimLd3heE-81">
          <mxGeometry relative="1" as="geometry">
            <Array as="points">
              <mxPoint x="1360" y="400" />
              <mxPoint x="2705" y="400" />
            </Array>
          </mxGeometry>
        </mxCell>
        <mxCell id="Qv7wDdTZeIyCimLd3heE-69" value="&lt;b&gt;Control&lt;/b&gt;" style="swimlane;fontStyle=0;align=center;verticalAlign=top;childLayout=stackLayout;horizontal=1;startSize=55;horizontalStack=0;resizeParent=1;resizeParentMax=0;resizeLast=0;collapsible=0;marginBottom=0;html=1;" vertex="1" parent="1">
          <mxGeometry x="1290" y="480" width="340" height="303" as="geometry" />
        </mxCell>
        <mxCell id="Qv7wDdTZeIyCimLd3heE-70" value="attributes" style="text;html=1;strokeColor=none;fillColor=none;align=center;verticalAlign=middle;spacingLeft=4;spacingRight=4;overflow=hidden;rotatable=0;points=[[0,0.5],[1,0.5]];portConstraint=eastwest;" vertex="1" parent="Qv7wDdTZeIyCimLd3heE-69">
          <mxGeometry y="55" width="340" height="20" as="geometry" />
        </mxCell>
        <mxCell id="Qv7wDdTZeIyCimLd3heE-71" value="&lt;u&gt;- log : Log&lt;/u&gt;" style="text;html=1;strokeColor=none;fillColor=none;align=left;verticalAlign=middle;spacingLeft=4;spacingRight=4;overflow=hidden;rotatable=0;points=[[0,0.5],[1,0.5]];portConstraint=eastwest;" vertex="1" parent="Qv7wDdTZeIyCimLd3heE-69">
          <mxGeometry y="75" width="340" height="20" as="geometry" />
        </mxCell>
        <mxCell id="Qv7wDdTZeIyCimLd3heE-72" value="&lt;u&gt;- control : Control&lt;/u&gt;" style="text;html=1;strokeColor=none;fillColor=none;align=left;verticalAlign=middle;spacingLeft=4;spacingRight=4;overflow=hidden;rotatable=0;points=[[0,0.5],[1,0.5]];portConstraint=eastwest;" vertex="1" parent="Qv7wDdTZeIyCimLd3heE-69">
          <mxGeometry y="95" width="340" height="20" as="geometry" />
        </mxCell>
        <mxCell id="Qv7wDdTZeIyCimLd3heE-73" value="- proxy : Proxy" style="text;html=1;strokeColor=none;fillColor=none;align=left;verticalAlign=middle;spacingLeft=4;spacingRight=4;overflow=hidden;rotatable=0;points=[[0,0.5],[1,0.5]];portConstraint=eastwest;" vertex="1" parent="Qv7wDdTZeIyCimLd3heE-69">
          <mxGeometry y="115" width="340" height="20" as="geometry" />
        </mxCell>
        <mxCell id="Qv7wDdTZeIyCimLd3heE-79" value="- menuFileControl : MenuFileControl" style="text;html=1;strokeColor=none;fillColor=none;align=left;verticalAlign=middle;spacingLeft=4;spacingRight=4;overflow=hidden;rotatable=0;points=[[0,0.5],[1,0.5]];portConstraint=eastwest;" vertex="1" parent="Qv7wDdTZeIyCimLd3heE-69">
          <mxGeometry y="135" width="340" height="20" as="geometry" />
        </mxCell>
        <mxCell id="Qv7wDdTZeIyCimLd3heE-80" value="- menuToolsControl : menuToolsControl" style="text;html=1;strokeColor=none;fillColor=none;align=left;verticalAlign=middle;spacingLeft=4;spacingRight=4;overflow=hidden;rotatable=0;points=[[0,0.5],[1,0.5]];portConstraint=eastwest;" vertex="1" parent="Qv7wDdTZeIyCimLd3heE-69">
          <mxGeometry y="155" width="340" height="20" as="geometry" />
        </mxCell>
        <mxCell id="Qv7wDdTZeIyCimLd3heE-74" value="" style="line;strokeWidth=1;fillColor=none;align=left;verticalAlign=middle;spacingTop=-1;spacingLeft=3;spacingRight=3;rotatable=0;labelPosition=right;points=[];portConstraint=eastwest;" vertex="1" parent="Qv7wDdTZeIyCimLd3heE-69">
          <mxGeometry y="175" width="340" height="8" as="geometry" />
        </mxCell>
        <mxCell id="Qv7wDdTZeIyCimLd3heE-75" value="operations" style="text;html=1;strokeColor=none;fillColor=none;align=center;verticalAlign=middle;spacingLeft=4;spacingRight=4;overflow=hidden;rotatable=0;points=[[0,0.5],[1,0.5]];portConstraint=eastwest;" vertex="1" parent="Qv7wDdTZeIyCimLd3heE-69">
          <mxGeometry y="183" width="340" height="20" as="geometry" />
        </mxCell>
        <mxCell id="Qv7wDdTZeIyCimLd3heE-76" value="- init():void" style="text;html=1;strokeColor=none;fillColor=none;align=left;verticalAlign=middle;spacingLeft=4;spacingRight=4;overflow=hidden;rotatable=0;points=[[0,0.5],[1,0.5]];portConstraint=eastwest;" vertex="1" parent="Qv7wDdTZeIyCimLd3heE-69">
          <mxGeometry y="203" width="340" height="20" as="geometry" />
        </mxCell>
        <mxCell id="Qv7wDdTZeIyCimLd3heE-77" value="+ getProxy() : Proxy" style="text;html=1;strokeColor=none;fillColor=none;align=left;verticalAlign=middle;spacingLeft=4;spacingRight=4;overflow=hidden;rotatable=0;points=[[0,0.5],[1,0.5]];portConstraint=eastwest;" vertex="1" parent="Qv7wDdTZeIyCimLd3heE-69">
          <mxGeometry y="223" width="340" height="20" as="geometry" />
        </mxCell>
        <mxCell id="Qv7wDdTZeIyCimLd3heE-78" value="# addExtension() : void" style="text;html=1;strokeColor=none;fillColor=none;align=left;verticalAlign=middle;spacingLeft=4;spacingRight=4;overflow=hidden;rotatable=0;points=[[0,0.5],[1,0.5]];portConstraint=eastwest;" vertex="1" parent="Qv7wDdTZeIyCimLd3heE-69">
          <mxGeometry y="243" width="340" height="20" as="geometry" />
        </mxCell>
        <mxCell id="Qv7wDdTZeIyCimLd3heE-258" value="+ getMenuFileControl() : MenuFileControl" style="text;html=1;strokeColor=none;fillColor=none;align=left;verticalAlign=middle;spacingLeft=4;spacingRight=4;overflow=hidden;rotatable=0;points=[[0,0.5],[1,0.5]];portConstraint=eastwest;" vertex="1" parent="Qv7wDdTZeIyCimLd3heE-69">
          <mxGeometry y="263" width="340" height="20" as="geometry" />
        </mxCell>
        <mxCell id="Qv7wDdTZeIyCimLd3heE-259" value="+ runCommandLineNewSession(fileName : String) : void" style="text;html=1;strokeColor=none;fillColor=none;align=left;verticalAlign=middle;spacingLeft=4;spacingRight=4;overflow=hidden;rotatable=0;points=[[0,0.5],[1,0.5]];portConstraint=eastwest;" vertex="1" parent="Qv7wDdTZeIyCimLd3heE-69">
          <mxGeometry y="283" width="340" height="20" as="geometry" />
        </mxCell>
        <mxCell id="Qv7wDdTZeIyCimLd3heE-81" value="&lt;b&gt;Proxy&lt;/b&gt;" style="swimlane;fontStyle=0;align=center;verticalAlign=top;childLayout=stackLayout;horizontal=1;startSize=55;horizontalStack=0;resizeParent=1;resizeParentMax=0;resizeLast=0;collapsible=0;marginBottom=0;html=1;" vertex="1" parent="1">
          <mxGeometry x="2570" y="480" width="270" height="223" as="geometry" />
        </mxCell>
        <mxCell id="Qv7wDdTZeIyCimLd3heE-82" value="attributes" style="text;html=1;strokeColor=none;fillColor=none;align=center;verticalAlign=middle;spacingLeft=4;spacingRight=4;overflow=hidden;rotatable=0;points=[[0,0.5],[1,0.5]];portConstraint=eastwest;" vertex="1" parent="Qv7wDdTZeIyCimLd3heE-81">
          <mxGeometry y="55" width="270" height="20" as="geometry" />
        </mxCell>
        <mxCell id="Qv7wDdTZeIyCimLd3heE-85" value="- model : Model" style="text;html=1;strokeColor=none;fillColor=none;align=left;verticalAlign=middle;spacingLeft=4;spacingRight=4;overflow=hidden;rotatable=0;points=[[0,0.5],[1,0.5]];portConstraint=eastwest;" vertex="1" parent="Qv7wDdTZeIyCimLd3heE-81">
          <mxGeometry y="75" width="270" height="20" as="geometry" />
        </mxCell>
        <mxCell id="Qv7wDdTZeIyCimLd3heE-86" value="- proxyServer : ProxyServer" style="text;html=1;strokeColor=none;fillColor=none;align=left;verticalAlign=middle;spacingLeft=4;spacingRight=4;overflow=hidden;rotatable=0;points=[[0,0.5],[1,0.5]];portConstraint=eastwest;" vertex="1" parent="Qv7wDdTZeIyCimLd3heE-81">
          <mxGeometry y="95" width="270" height="20" as="geometry" />
        </mxCell>
        <mxCell id="Qv7wDdTZeIyCimLd3heE-87" value="- reverseProxy : boolean" style="text;html=1;strokeColor=none;fillColor=none;align=left;verticalAlign=middle;spacingLeft=4;spacingRight=4;overflow=hidden;rotatable=0;points=[[0,0.5],[1,0.5]];portConstraint=eastwest;" vertex="1" parent="Qv7wDdTZeIyCimLd3heE-81">
          <mxGeometry y="115" width="270" height="20" as="geometry" />
        </mxCell>
        <mxCell id="Qv7wDdTZeIyCimLd3heE-88" value="" style="line;strokeWidth=1;fillColor=none;align=left;verticalAlign=middle;spacingTop=-1;spacingLeft=3;spacingRight=3;rotatable=0;labelPosition=right;points=[];portConstraint=eastwest;" vertex="1" parent="Qv7wDdTZeIyCimLd3heE-81">
          <mxGeometry y="135" width="270" height="8" as="geometry" />
        </mxCell>
        <mxCell id="Qv7wDdTZeIyCimLd3heE-89" value="operations" style="text;html=1;strokeColor=none;fillColor=none;align=center;verticalAlign=middle;spacingLeft=4;spacingRight=4;overflow=hidden;rotatable=0;points=[[0,0.5],[1,0.5]];portConstraint=eastwest;" vertex="1" parent="Qv7wDdTZeIyCimLd3heE-81">
          <mxGeometry y="143" width="270" height="20" as="geometry" />
        </mxCell>
        <mxCell id="Qv7wDdTZeIyCimLd3heE-90" value="+ Proxy(model : Model)" style="text;html=1;strokeColor=none;fillColor=none;align=left;verticalAlign=middle;spacingLeft=4;spacingRight=4;overflow=hidden;rotatable=0;points=[[0,0.5],[1,0.5]];portConstraint=eastwest;" vertex="1" parent="Qv7wDdTZeIyCimLd3heE-81">
          <mxGeometry y="163" width="270" height="20" as="geometry" />
        </mxCell>
        <mxCell id="Qv7wDdTZeIyCimLd3heE-91" value="+ startServer() : void" style="text;html=1;strokeColor=none;fillColor=none;align=left;verticalAlign=middle;spacingLeft=4;spacingRight=4;overflow=hidden;rotatable=0;points=[[0,0.5],[1,0.5]];portConstraint=eastwest;" vertex="1" parent="Qv7wDdTZeIyCimLd3heE-81">
          <mxGeometry y="183" width="270" height="20" as="geometry" />
        </mxCell>
        <mxCell id="Qv7wDdTZeIyCimLd3heE-92" value="+ stopServer() : void" style="text;html=1;strokeColor=none;fillColor=none;align=left;verticalAlign=middle;spacingLeft=4;spacingRight=4;overflow=hidden;rotatable=0;points=[[0,0.5],[1,0.5]];portConstraint=eastwest;" vertex="1" parent="Qv7wDdTZeIyCimLd3heE-81">
          <mxGeometry y="203" width="270" height="20" as="geometry" />
        </mxCell>
        <mxCell id="Qv7wDdTZeIyCimLd3heE-326" style="edgeStyle=orthogonalEdgeStyle;rounded=0;orthogonalLoop=1;jettySize=auto;html=1;entryX=0.503;entryY=1.032;entryDx=0;entryDy=0;entryPerimeter=0;startArrow=none;startFill=0;endArrow=open;endFill=0;dashed=1;" edge="1" parent="1" source="Qv7wDdTZeIyCimLd3heE-327" target="Qv7wDdTZeIyCimLd3heE-277">
          <mxGeometry relative="1" as="geometry" />
        </mxCell>
        <mxCell id="Qv7wDdTZeIyCimLd3heE-93" value="&lt;b&gt;Proxy Server&lt;/b&gt;" style="swimlane;fontStyle=0;align=center;verticalAlign=top;childLayout=stackLayout;horizontal=1;startSize=55;horizontalStack=0;resizeParent=1;resizeParentMax=0;resizeLast=0;collapsible=0;marginBottom=0;html=1;" vertex="1" parent="1">
          <mxGeometry x="3015" y="480" width="340" height="343" as="geometry" />
        </mxCell>
        <mxCell id="Qv7wDdTZeIyCimLd3heE-94" value="attributes" style="text;html=1;strokeColor=none;fillColor=none;align=center;verticalAlign=middle;spacingLeft=4;spacingRight=4;overflow=hidden;rotatable=0;points=[[0,0.5],[1,0.5]];portConstraint=eastwest;" vertex="1" parent="Qv7wDdTZeIyCimLd3heE-93">
          <mxGeometry y="55" width="340" height="20" as="geometry" />
        </mxCell>
        <mxCell id="Qv7wDdTZeIyCimLd3heE-95" value="# thread : Thread" style="text;html=1;strokeColor=none;fillColor=none;align=left;verticalAlign=middle;spacingLeft=4;spacingRight=4;overflow=hidden;rotatable=0;points=[[0,0.5],[1,0.5]];portConstraint=eastwest;" vertex="1" parent="Qv7wDdTZeIyCimLd3heE-93">
          <mxGeometry y="75" width="340" height="20" as="geometry" />
        </mxCell>
        <mxCell id="Qv7wDdTZeIyCimLd3heE-96" value="&lt;u&gt;# PORT_TIME_OUT : int {readOnly}&lt;/u&gt;" style="text;html=1;strokeColor=none;fillColor=none;align=left;verticalAlign=middle;spacingLeft=4;spacingRight=4;overflow=hidden;rotatable=0;points=[[0,0.5],[1,0.5]];portConstraint=eastwest;" vertex="1" parent="Qv7wDdTZeIyCimLd3heE-93">
          <mxGeometry y="95" width="340" height="20" as="geometry" />
        </mxCell>
        <mxCell id="Qv7wDdTZeIyCimLd3heE-97" value="# proxyParam : ProxyParam" style="text;html=1;strokeColor=none;fillColor=none;align=left;verticalAlign=middle;spacingLeft=4;spacingRight=4;overflow=hidden;rotatable=0;points=[[0,0.5],[1,0.5]];portConstraint=eastwest;" vertex="1" parent="Qv7wDdTZeIyCimLd3heE-93">
          <mxGeometry y="115" width="340" height="20" as="geometry" />
        </mxCell>
        <mxCell id="Qv7wDdTZeIyCimLd3heE-260" value="# thread : Thread" style="text;html=1;strokeColor=none;fillColor=none;align=left;verticalAlign=middle;spacingLeft=4;spacingRight=4;overflow=hidden;rotatable=0;points=[[0,0.5],[1,0.5]];portConstraint=eastwest;" vertex="1" parent="Qv7wDdTZeIyCimLd3heE-93">
          <mxGeometry y="135" width="340" height="20" as="geometry" />
        </mxCell>
        <mxCell id="Qv7wDdTZeIyCimLd3heE-98" value="" style="line;strokeWidth=1;fillColor=none;align=left;verticalAlign=middle;spacingTop=-1;spacingLeft=3;spacingRight=3;rotatable=0;labelPosition=right;points=[];portConstraint=eastwest;" vertex="1" parent="Qv7wDdTZeIyCimLd3heE-93">
          <mxGeometry y="155" width="340" height="8" as="geometry" />
        </mxCell>
        <mxCell id="Qv7wDdTZeIyCimLd3heE-99" value="operations" style="text;html=1;strokeColor=none;fillColor=none;align=center;verticalAlign=middle;spacingLeft=4;spacingRight=4;overflow=hidden;rotatable=0;points=[[0,0.5],[1,0.5]];portConstraint=eastwest;" vertex="1" parent="Qv7wDdTZeIyCimLd3heE-93">
          <mxGeometry y="163" width="340" height="20" as="geometry" />
        </mxCell>
        <mxCell id="Qv7wDdTZeIyCimLd3heE-261" value="+ ProxyServer()" style="text;html=1;strokeColor=none;fillColor=none;align=left;verticalAlign=middle;spacingLeft=4;spacingRight=4;overflow=hidden;rotatable=0;points=[[0,0.5],[1,0.5]];portConstraint=eastwest;" vertex="1" parent="Qv7wDdTZeIyCimLd3heE-93">
          <mxGeometry y="183" width="340" height="20" as="geometry" />
        </mxCell>
        <mxCell id="Qv7wDdTZeIyCimLd3heE-100" value="+ isEnableCacheProcession() : boolean" style="text;html=1;strokeColor=none;fillColor=none;align=left;verticalAlign=middle;spacingLeft=4;spacingRight=4;overflow=hidden;rotatable=0;points=[[0,0.5],[1,0.5]];portConstraint=eastwest;" vertex="1" parent="Qv7wDdTZeIyCimLd3heE-93">
          <mxGeometry y="203" width="340" height="20" as="geometry" />
        </mxCell>
        <mxCell id="Qv7wDdTZeIyCimLd3heE-101" value="+ setEnableCacheProcessing() : void" style="text;html=1;strokeColor=none;fillColor=none;align=left;verticalAlign=middle;spacingLeft=4;spacingRight=4;overflow=hidden;rotatable=0;points=[[0,0.5],[1,0.5]];portConstraint=eastwest;" vertex="1" parent="Qv7wDdTZeIyCimLd3heE-93">
          <mxGeometry y="223" width="340" height="20" as="geometry" />
        </mxCell>
        <mxCell id="Qv7wDdTZeIyCimLd3heE-102" value="+ isSerialize() : boolean" style="text;html=1;strokeColor=none;fillColor=none;align=left;verticalAlign=middle;spacingLeft=4;spacingRight=4;overflow=hidden;rotatable=0;points=[[0,0.5],[1,0.5]];portConstraint=eastwest;" vertex="1" parent="Qv7wDdTZeIyCimLd3heE-93">
          <mxGeometry y="243" width="340" height="20" as="geometry" />
        </mxCell>
        <mxCell id="Qv7wDdTZeIyCimLd3heE-262" value="+ setProxyParam(param : ProxyParam)" style="text;html=1;strokeColor=none;fillColor=none;align=left;verticalAlign=middle;spacingLeft=4;spacingRight=4;overflow=hidden;rotatable=0;points=[[0,0.5],[1,0.5]];portConstraint=eastwest;" vertex="1" parent="Qv7wDdTZeIyCimLd3heE-93">
          <mxGeometry y="263" width="340" height="20" as="geometry" />
        </mxCell>
        <mxCell id="Qv7wDdTZeIyCimLd3heE-263" value="+ setConnectionParam(connection : ConnectionParam)" style="text;html=1;strokeColor=none;fillColor=none;align=left;verticalAlign=middle;spacingLeft=4;spacingRight=4;overflow=hidden;rotatable=0;points=[[0,0.5],[1,0.5]];portConstraint=eastwest;" vertex="1" parent="Qv7wDdTZeIyCimLd3heE-93">
          <mxGeometry y="283" width="340" height="20" as="geometry" />
        </mxCell>
        <mxCell id="Qv7wDdTZeIyCimLd3heE-264" value="+ startServer(ip : String, port : int, isDynamicPort : boolean)" style="text;html=1;strokeColor=none;fillColor=none;align=left;verticalAlign=middle;spacingLeft=4;spacingRight=4;overflow=hidden;rotatable=0;points=[[0,0.5],[1,0.5]];portConstraint=eastwest;" vertex="1" parent="Qv7wDdTZeIyCimLd3heE-93">
          <mxGeometry y="303" width="340" height="20" as="geometry" />
        </mxCell>
        <mxCell id="Qv7wDdTZeIyCimLd3heE-265" value="+ stopServer() : boolean" style="text;html=1;strokeColor=none;fillColor=none;align=left;verticalAlign=middle;spacingLeft=4;spacingRight=4;overflow=hidden;rotatable=0;points=[[0,0.5],[1,0.5]];portConstraint=eastwest;" vertex="1" parent="Qv7wDdTZeIyCimLd3heE-93">
          <mxGeometry y="323" width="340" height="20" as="geometry" />
        </mxCell>
        <mxCell id="Qv7wDdTZeIyCimLd3heE-334" style="edgeStyle=orthogonalEdgeStyle;rounded=0;orthogonalLoop=1;jettySize=auto;html=1;entryX=0.498;entryY=1.042;entryDx=0;entryDy=0;entryPerimeter=0;startArrow=none;startFill=0;endArrow=open;endFill=0;dashed=1;" edge="1" parent="1" source="Qv7wDdTZeIyCimLd3heE-103" target="Qv7wDdTZeIyCimLd3heE-265">
          <mxGeometry relative="1" as="geometry" />
        </mxCell>
        <mxCell id="Qv7wDdTZeIyCimLd3heE-103" value="&lt;b&gt;ProxyThread&lt;/b&gt;" style="swimlane;fontStyle=0;align=center;verticalAlign=top;childLayout=stackLayout;horizontal=1;startSize=55;horizontalStack=0;resizeParent=1;resizeParentMax=0;resizeLast=0;collapsible=0;marginBottom=0;html=1;" vertex="1" parent="1">
          <mxGeometry x="3025" y="900" width="320" height="243" as="geometry" />
        </mxCell>
        <mxCell id="Qv7wDdTZeIyCimLd3heE-104" value="attributes" style="text;html=1;strokeColor=none;fillColor=none;align=center;verticalAlign=middle;spacingLeft=4;spacingRight=4;overflow=hidden;rotatable=0;points=[[0,0.5],[1,0.5]];portConstraint=eastwest;" vertex="1" parent="Qv7wDdTZeIyCimLd3heE-103">
          <mxGeometry y="55" width="320" height="20" as="geometry" />
        </mxCell>
        <mxCell id="Qv7wDdTZeIyCimLd3heE-105" value="# thread : Thread" style="text;html=1;strokeColor=none;fillColor=none;align=left;verticalAlign=middle;spacingLeft=4;spacingRight=4;overflow=hidden;rotatable=0;points=[[0,0.5],[1,0.5]];portConstraint=eastwest;" vertex="1" parent="Qv7wDdTZeIyCimLd3heE-103">
          <mxGeometry y="75" width="320" height="20" as="geometry" />
        </mxCell>
        <mxCell id="Qv7wDdTZeIyCimLd3heE-106" value="# proxyParam : ProxyParam" style="text;html=1;strokeColor=none;fillColor=none;align=left;verticalAlign=middle;spacingLeft=4;spacingRight=4;overflow=hidden;rotatable=0;points=[[0,0.5],[1,0.5]];portConstraint=eastwest;" vertex="1" parent="Qv7wDdTZeIyCimLd3heE-103">
          <mxGeometry y="95" width="320" height="20" as="geometry" />
        </mxCell>
        <mxCell id="Qv7wDdTZeIyCimLd3heE-107" value="# connectionParam : ConnectionParam" style="text;html=1;strokeColor=none;fillColor=none;align=left;verticalAlign=middle;spacingLeft=4;spacingRight=4;overflow=hidden;rotatable=0;points=[[0,0.5],[1,0.5]];portConstraint=eastwest;" vertex="1" parent="Qv7wDdTZeIyCimLd3heE-103">
          <mxGeometry y="115" width="320" height="20" as="geometry" />
        </mxCell>
        <mxCell id="Qv7wDdTZeIyCimLd3heE-108" value="" style="line;strokeWidth=1;fillColor=none;align=left;verticalAlign=middle;spacingTop=-1;spacingLeft=3;spacingRight=3;rotatable=0;labelPosition=right;points=[];portConstraint=eastwest;" vertex="1" parent="Qv7wDdTZeIyCimLd3heE-103">
          <mxGeometry y="135" width="320" height="8" as="geometry" />
        </mxCell>
        <mxCell id="Qv7wDdTZeIyCimLd3heE-109" value="operations" style="text;html=1;strokeColor=none;fillColor=none;align=center;verticalAlign=middle;spacingLeft=4;spacingRight=4;overflow=hidden;rotatable=0;points=[[0,0.5],[1,0.5]];portConstraint=eastwest;" vertex="1" parent="Qv7wDdTZeIyCimLd3heE-103">
          <mxGeometry y="143" width="320" height="20" as="geometry" />
        </mxCell>
        <mxCell id="Qv7wDdTZeIyCimLd3heE-266" value="+ ProxyThread(server : ProxyServer, socket: Socket)" style="text;html=1;strokeColor=none;fillColor=none;align=left;verticalAlign=middle;spacingLeft=4;spacingRight=4;overflow=hidden;rotatable=0;points=[[0,0.5],[1,0.5]];portConstraint=eastwest;" vertex="1" parent="Qv7wDdTZeIyCimLd3heE-103">
          <mxGeometry y="163" width="320" height="20" as="geometry" />
        </mxCell>
        <mxCell id="Qv7wDdTZeIyCimLd3heE-110" value="+ start() : void" style="text;html=1;strokeColor=none;fillColor=none;align=left;verticalAlign=middle;spacingLeft=4;spacingRight=4;overflow=hidden;rotatable=0;points=[[0,0.5],[1,0.5]];portConstraint=eastwest;" vertex="1" parent="Qv7wDdTZeIyCimLd3heE-103">
          <mxGeometry y="183" width="320" height="20" as="geometry" />
        </mxCell>
        <mxCell id="Qv7wDdTZeIyCimLd3heE-111" value="- beginSSL() : void" style="text;html=1;strokeColor=none;fillColor=none;align=left;verticalAlign=middle;spacingLeft=4;spacingRight=4;overflow=hidden;rotatable=0;points=[[0,0.5],[1,0.5]];portConstraint=eastwest;" vertex="1" parent="Qv7wDdTZeIyCimLd3heE-103">
          <mxGeometry y="203" width="320" height="20" as="geometry" />
        </mxCell>
        <mxCell id="Qv7wDdTZeIyCimLd3heE-112" value="+ run() : void" style="text;html=1;strokeColor=none;fillColor=none;align=left;verticalAlign=middle;spacingLeft=4;spacingRight=4;overflow=hidden;rotatable=0;points=[[0,0.5],[1,0.5]];portConstraint=eastwest;" vertex="1" parent="Qv7wDdTZeIyCimLd3heE-103">
          <mxGeometry y="223" width="320" height="20" as="geometry" />
        </mxCell>
        <mxCell id="Qv7wDdTZeIyCimLd3heE-336" style="edgeStyle=orthogonalEdgeStyle;rounded=0;orthogonalLoop=1;jettySize=auto;html=1;entryX=0;entryY=0.5;entryDx=0;entryDy=0;startArrow=none;startFill=0;endArrow=block;endFill=0;exitX=0.75;exitY=0;exitDx=0;exitDy=0;" edge="1" parent="1" source="Qv7wDdTZeIyCimLd3heE-113" target="Qv7wDdTZeIyCimLd3heE-102">
          <mxGeometry relative="1" as="geometry" />
        </mxCell>
        <mxCell id="Qv7wDdTZeIyCimLd3heE-337" style="edgeStyle=orthogonalEdgeStyle;rounded=0;orthogonalLoop=1;jettySize=auto;html=1;entryX=0.499;entryY=1.007;entryDx=0;entryDy=0;entryPerimeter=0;startArrow=none;startFill=0;endArrow=diamondThin;endFill=1;" edge="1" parent="1" source="Qv7wDdTZeIyCimLd3heE-113" target="Qv7wDdTZeIyCimLd3heE-92">
          <mxGeometry relative="1" as="geometry" />
        </mxCell>
        <mxCell id="Qv7wDdTZeIyCimLd3heE-113" value="&lt;b&gt;ProxyServerSSL&lt;/b&gt;" style="swimlane;fontStyle=0;align=center;verticalAlign=top;childLayout=stackLayout;horizontal=1;startSize=55;horizontalStack=0;resizeParent=1;resizeParentMax=0;resizeLast=0;collapsible=0;marginBottom=0;html=1;" vertex="1" parent="1">
          <mxGeometry x="2570" y="800" width="270" height="183" as="geometry" />
        </mxCell>
        <mxCell id="Qv7wDdTZeIyCimLd3heE-114" value="attributes" style="text;html=1;strokeColor=none;fillColor=none;align=center;verticalAlign=middle;spacingLeft=4;spacingRight=4;overflow=hidden;rotatable=0;points=[[0,0.5],[1,0.5]];portConstraint=eastwest;" vertex="1" parent="Qv7wDdTZeIyCimLd3heE-113">
          <mxGeometry y="55" width="270" height="20" as="geometry" />
        </mxCell>
        <mxCell id="Qv7wDdTZeIyCimLd3heE-115" value="&lt;u&gt;- ssl : SSLConnector&lt;/u&gt;" style="text;html=1;strokeColor=none;fillColor=none;align=left;verticalAlign=middle;spacingLeft=4;spacingRight=4;overflow=hidden;rotatable=0;points=[[0,0.5],[1,0.5]];portConstraint=eastwest;" vertex="1" parent="Qv7wDdTZeIyCimLd3heE-113">
          <mxGeometry y="75" width="270" height="20" as="geometry" />
        </mxCell>
        <mxCell id="Qv7wDdTZeIyCimLd3heE-118" value="" style="line;strokeWidth=1;fillColor=none;align=left;verticalAlign=middle;spacingTop=-1;spacingLeft=3;spacingRight=3;rotatable=0;labelPosition=right;points=[];portConstraint=eastwest;" vertex="1" parent="Qv7wDdTZeIyCimLd3heE-113">
          <mxGeometry y="95" width="270" height="8" as="geometry" />
        </mxCell>
        <mxCell id="Qv7wDdTZeIyCimLd3heE-119" value="operations" style="text;html=1;strokeColor=none;fillColor=none;align=center;verticalAlign=middle;spacingLeft=4;spacingRight=4;overflow=hidden;rotatable=0;points=[[0,0.5],[1,0.5]];portConstraint=eastwest;" vertex="1" parent="Qv7wDdTZeIyCimLd3heE-113">
          <mxGeometry y="103" width="270" height="20" as="geometry" />
        </mxCell>
        <mxCell id="Qv7wDdTZeIyCimLd3heE-120" value="+ ProxyServerSSL()" style="text;html=1;strokeColor=none;fillColor=none;align=left;verticalAlign=middle;spacingLeft=4;spacingRight=4;overflow=hidden;rotatable=0;points=[[0,0.5],[1,0.5]];portConstraint=eastwest;" vertex="1" parent="Qv7wDdTZeIyCimLd3heE-113">
          <mxGeometry y="123" width="270" height="20" as="geometry" />
        </mxCell>
        <mxCell id="Qv7wDdTZeIyCimLd3heE-121" value="# createServerSocket() : ServerSocket" style="text;html=1;strokeColor=none;fillColor=none;align=left;verticalAlign=middle;spacingLeft=4;spacingRight=4;overflow=hidden;rotatable=0;points=[[0,0.5],[1,0.5]];portConstraint=eastwest;" vertex="1" parent="Qv7wDdTZeIyCimLd3heE-113">
          <mxGeometry y="143" width="270" height="20" as="geometry" />
        </mxCell>
        <mxCell id="Qv7wDdTZeIyCimLd3heE-122" value="# createProxyProcess() : ProxyThread" style="text;html=1;strokeColor=none;fillColor=none;align=left;verticalAlign=middle;spacingLeft=4;spacingRight=4;overflow=hidden;rotatable=0;points=[[0,0.5],[1,0.5]];portConstraint=eastwest;" vertex="1" parent="Qv7wDdTZeIyCimLd3heE-113">
          <mxGeometry y="163" width="270" height="20" as="geometry" />
        </mxCell>
        <mxCell id="Qv7wDdTZeIyCimLd3heE-339" style="edgeStyle=orthogonalEdgeStyle;rounded=0;orthogonalLoop=1;jettySize=auto;html=1;entryX=0.5;entryY=0;entryDx=0;entryDy=0;startArrow=none;startFill=0;endArrow=diamondThin;endFill=0;" edge="1" parent="1" source="Qv7wDdTZeIyCimLd3heE-131" target="Qv7wDdTZeIyCimLd3heE-193">
          <mxGeometry relative="1" as="geometry" />
        </mxCell>
        <mxCell id="Qv7wDdTZeIyCimLd3heE-131" value="&lt;b&gt;OptionParam&lt;/b&gt;" style="swimlane;fontStyle=0;align=center;verticalAlign=top;childLayout=stackLayout;horizontal=1;startSize=55;horizontalStack=0;resizeParent=1;resizeParentMax=0;resizeLast=0;collapsible=0;marginBottom=0;html=1;" vertex="1" parent="1">
          <mxGeometry x="3480" y="900" width="270" height="309" as="geometry" />
        </mxCell>
        <mxCell id="Qv7wDdTZeIyCimLd3heE-132" value="attributes" style="text;html=1;strokeColor=none;fillColor=none;align=center;verticalAlign=middle;spacingLeft=4;spacingRight=4;overflow=hidden;rotatable=0;points=[[0,0.5],[1,0.5]];portConstraint=eastwest;" vertex="1" parent="Qv7wDdTZeIyCimLd3heE-131">
          <mxGeometry y="55" width="270" height="20" as="geometry" />
        </mxCell>
        <mxCell id="Qv7wDdTZeIyCimLd3heE-133" value="- proxyParam : ProxyParam" style="text;html=1;strokeColor=none;fillColor=none;align=left;verticalAlign=middle;spacingLeft=4;spacingRight=4;overflow=hidden;rotatable=0;points=[[0,0.5],[1,0.5]];portConstraint=eastwest;" vertex="1" parent="Qv7wDdTZeIyCimLd3heE-131">
          <mxGeometry y="75" width="270" height="20" as="geometry" />
        </mxCell>
        <mxCell id="Qv7wDdTZeIyCimLd3heE-134" value="- connectionParam : ConnectionParam" style="text;html=1;strokeColor=none;fillColor=none;align=left;verticalAlign=middle;spacingLeft=4;spacingRight=4;overflow=hidden;rotatable=0;points=[[0,0.5],[1,0.5]];portConstraint=eastwest;" vertex="1" parent="Qv7wDdTZeIyCimLd3heE-131">
          <mxGeometry y="95" width="270" height="20" as="geometry" />
        </mxCell>
        <mxCell id="Qv7wDdTZeIyCimLd3heE-135" value="- viewParam : OptionsParaview" style="text;html=1;strokeColor=none;fillColor=none;align=left;verticalAlign=middle;spacingLeft=4;spacingRight=4;overflow=hidden;rotatable=0;points=[[0,0.5],[1,0.5]];portConstraint=eastwest;" vertex="1" parent="Qv7wDdTZeIyCimLd3heE-131">
          <mxGeometry y="115" width="270" height="20" as="geometry" />
        </mxCell>
        <mxCell id="Qv7wDdTZeIyCimLd3heE-136" value="" style="line;strokeWidth=1;fillColor=none;align=left;verticalAlign=middle;spacingTop=-1;spacingLeft=3;spacingRight=3;rotatable=0;labelPosition=right;points=[];portConstraint=eastwest;" vertex="1" parent="Qv7wDdTZeIyCimLd3heE-131">
          <mxGeometry y="135" width="270" height="8" as="geometry" />
        </mxCell>
        <mxCell id="Qv7wDdTZeIyCimLd3heE-137" value="operations" style="text;html=1;strokeColor=none;fillColor=none;align=center;verticalAlign=middle;spacingLeft=4;spacingRight=4;overflow=hidden;rotatable=0;points=[[0,0.5],[1,0.5]];portConstraint=eastwest;" vertex="1" parent="Qv7wDdTZeIyCimLd3heE-131">
          <mxGeometry y="143" width="270" height="20" as="geometry" />
        </mxCell>
        <mxCell id="Qv7wDdTZeIyCimLd3heE-267" value="+ OptionsParam()" style="text;html=1;strokeColor=none;fillColor=none;align=left;verticalAlign=middle;spacingLeft=4;spacingRight=4;overflow=hidden;rotatable=0;points=[[0,0.5],[1,0.5]];portConstraint=eastwest;" vertex="1" parent="Qv7wDdTZeIyCimLd3heE-131">
          <mxGeometry y="163" width="270" height="20" as="geometry" />
        </mxCell>
        <mxCell id="Qv7wDdTZeIyCimLd3heE-138" value="+ getConfig() : FileConfiguration" style="text;html=1;strokeColor=none;fillColor=none;align=left;verticalAlign=middle;spacingLeft=4;spacingRight=4;overflow=hidden;rotatable=0;points=[[0,0.5],[1,0.5]];portConstraint=eastwest;" vertex="1" parent="Qv7wDdTZeIyCimLd3heE-131">
          <mxGeometry y="183" width="270" height="20" as="geometry" />
        </mxCell>
        <mxCell id="Qv7wDdTZeIyCimLd3heE-140" value="+ getParamSet() : AbstractParam" style="text;html=1;strokeColor=none;fillColor=none;align=left;verticalAlign=middle;spacingLeft=4;spacingRight=4;overflow=hidden;rotatable=0;points=[[0,0.5],[1,0.5]];portConstraint=eastwest;" vertex="1" parent="Qv7wDdTZeIyCimLd3heE-131">
          <mxGeometry y="203" width="270" height="23" as="geometry" />
        </mxCell>
        <mxCell id="Qv7wDdTZeIyCimLd3heE-270" value="+ getProxyParam() : ProxyParam" style="text;html=1;strokeColor=none;fillColor=none;align=left;verticalAlign=middle;spacingLeft=4;spacingRight=4;overflow=hidden;rotatable=0;points=[[0,0.5],[1,0.5]];portConstraint=eastwest;" vertex="1" parent="Qv7wDdTZeIyCimLd3heE-131">
          <mxGeometry y="226" width="270" height="23" as="geometry" />
        </mxCell>
        <mxCell id="Qv7wDdTZeIyCimLd3heE-139" value="+ addParamSet() : void" style="text;html=1;strokeColor=none;fillColor=none;align=left;verticalAlign=middle;spacingLeft=4;spacingRight=4;overflow=hidden;rotatable=0;points=[[0,0.5],[1,0.5]];portConstraint=eastwest;" vertex="1" parent="Qv7wDdTZeIyCimLd3heE-131">
          <mxGeometry y="249" width="270" height="20" as="geometry" />
        </mxCell>
        <mxCell id="Qv7wDdTZeIyCimLd3heE-268" value="+ setGUI(gui : boolean) : void" style="text;html=1;strokeColor=none;fillColor=none;align=left;verticalAlign=middle;spacingLeft=4;spacingRight=4;overflow=hidden;rotatable=0;points=[[0,0.5],[1,0.5]];portConstraint=eastwest;" vertex="1" parent="Qv7wDdTZeIyCimLd3heE-131">
          <mxGeometry y="269" width="270" height="20" as="geometry" />
        </mxCell>
        <mxCell id="Qv7wDdTZeIyCimLd3heE-269" value="+ isGUI() : void" style="text;html=1;strokeColor=none;fillColor=none;align=left;verticalAlign=middle;spacingLeft=4;spacingRight=4;overflow=hidden;rotatable=0;points=[[0,0.5],[1,0.5]];portConstraint=eastwest;" vertex="1" parent="Qv7wDdTZeIyCimLd3heE-131">
          <mxGeometry y="289" width="270" height="20" as="geometry" />
        </mxCell>
        <mxCell id="Qv7wDdTZeIyCimLd3heE-141" value="&lt;b&gt;AbstractControl&lt;/b&gt;" style="swimlane;fontStyle=0;align=center;verticalAlign=top;childLayout=stackLayout;horizontal=1;startSize=55;horizontalStack=0;resizeParent=1;resizeParentMax=0;resizeLast=0;collapsible=0;marginBottom=0;html=1;" vertex="1" parent="1">
          <mxGeometry x="1360" y="900" width="270" height="263" as="geometry" />
        </mxCell>
        <mxCell id="Qv7wDdTZeIyCimLd3heE-142" value="attributes" style="text;html=1;strokeColor=none;fillColor=none;align=center;verticalAlign=middle;spacingLeft=4;spacingRight=4;overflow=hidden;rotatable=0;points=[[0,0.5],[1,0.5]];portConstraint=eastwest;" vertex="1" parent="Qv7wDdTZeIyCimLd3heE-141">
          <mxGeometry y="55" width="270" height="20" as="geometry" />
        </mxCell>
        <mxCell id="Qv7wDdTZeIyCimLd3heE-143" value="# loader : ExtensionLoader" style="text;html=1;strokeColor=none;fillColor=none;align=left;verticalAlign=middle;spacingLeft=4;spacingRight=4;overflow=hidden;rotatable=0;points=[[0,0.5],[1,0.5]];portConstraint=eastwest;" vertex="1" parent="Qv7wDdTZeIyCimLd3heE-141">
          <mxGeometry y="75" width="270" height="20" as="geometry" />
        </mxCell>
        <mxCell id="Qv7wDdTZeIyCimLd3heE-144" value="# model : Model" style="text;html=1;strokeColor=none;fillColor=none;align=left;verticalAlign=middle;spacingLeft=4;spacingRight=4;overflow=hidden;rotatable=0;points=[[0,0.5],[1,0.5]];portConstraint=eastwest;" vertex="1" parent="Qv7wDdTZeIyCimLd3heE-141">
          <mxGeometry y="95" width="270" height="20" as="geometry" />
        </mxCell>
        <mxCell id="Qv7wDdTZeIyCimLd3heE-145" value="# view : View" style="text;html=1;strokeColor=none;fillColor=none;align=left;verticalAlign=middle;spacingLeft=4;spacingRight=4;overflow=hidden;rotatable=0;points=[[0,0.5],[1,0.5]];portConstraint=eastwest;" vertex="1" parent="Qv7wDdTZeIyCimLd3heE-141">
          <mxGeometry y="115" width="270" height="20" as="geometry" />
        </mxCell>
        <mxCell id="Qv7wDdTZeIyCimLd3heE-146" value="" style="line;strokeWidth=1;fillColor=none;align=left;verticalAlign=middle;spacingTop=-1;spacingLeft=3;spacingRight=3;rotatable=0;labelPosition=right;points=[];portConstraint=eastwest;" vertex="1" parent="Qv7wDdTZeIyCimLd3heE-141">
          <mxGeometry y="135" width="270" height="8" as="geometry" />
        </mxCell>
        <mxCell id="Qv7wDdTZeIyCimLd3heE-147" value="operations" style="text;html=1;strokeColor=none;fillColor=none;align=center;verticalAlign=middle;spacingLeft=4;spacingRight=4;overflow=hidden;rotatable=0;points=[[0,0.5],[1,0.5]];portConstraint=eastwest;" vertex="1" parent="Qv7wDdTZeIyCimLd3heE-141">
          <mxGeometry y="143" width="270" height="20" as="geometry" />
        </mxCell>
        <mxCell id="Qv7wDdTZeIyCimLd3heE-148" value="+ AbstractControl(model : Model , view : View)" style="text;html=1;strokeColor=none;fillColor=none;align=left;verticalAlign=middle;spacingLeft=4;spacingRight=4;overflow=hidden;rotatable=0;points=[[0,0.5],[1,0.5]];portConstraint=eastwest;" vertex="1" parent="Qv7wDdTZeIyCimLd3heE-141">
          <mxGeometry y="163" width="270" height="20" as="geometry" />
        </mxCell>
        <mxCell id="Qv7wDdTZeIyCimLd3heE-149" value="+ getExtentionLoader() : ExtensionLoader" style="text;html=1;strokeColor=none;fillColor=none;align=left;verticalAlign=middle;spacingLeft=4;spacingRight=4;overflow=hidden;rotatable=0;points=[[0,0.5],[1,0.5]];portConstraint=eastwest;" vertex="1" parent="Qv7wDdTZeIyCimLd3heE-141">
          <mxGeometry y="183" width="270" height="20" as="geometry" />
        </mxCell>
        <mxCell id="Qv7wDdTZeIyCimLd3heE-150" value="# loadExtension() : void" style="text;html=1;strokeColor=none;fillColor=none;align=left;verticalAlign=middle;spacingLeft=4;spacingRight=4;overflow=hidden;rotatable=0;points=[[0,0.5],[1,0.5]];portConstraint=eastwest;" vertex="1" parent="Qv7wDdTZeIyCimLd3heE-141">
          <mxGeometry y="203" width="270" height="20" as="geometry" />
        </mxCell>
        <mxCell id="Qv7wDdTZeIyCimLd3heE-271" value="# addCommonExtension() : void" style="text;html=1;strokeColor=none;fillColor=none;align=left;verticalAlign=middle;spacingLeft=4;spacingRight=4;overflow=hidden;rotatable=0;points=[[0,0.5],[1,0.5]];portConstraint=eastwest;" vertex="1" parent="Qv7wDdTZeIyCimLd3heE-141">
          <mxGeometry y="223" width="270" height="20" as="geometry" />
        </mxCell>
        <mxCell id="Qv7wDdTZeIyCimLd3heE-272" value="# addExtension() : void" style="text;html=1;strokeColor=none;fillColor=none;align=left;verticalAlign=middle;spacingLeft=4;spacingRight=4;overflow=hidden;rotatable=0;points=[[0,0.5],[1,0.5]];portConstraint=eastwest;" vertex="1" parent="Qv7wDdTZeIyCimLd3heE-141">
          <mxGeometry y="243" width="270" height="20" as="geometry" />
        </mxCell>
        <mxCell id="Qv7wDdTZeIyCimLd3heE-317" style="edgeStyle=orthogonalEdgeStyle;rounded=0;orthogonalLoop=1;jettySize=auto;html=1;entryX=0;entryY=0.5;entryDx=0;entryDy=0;startArrow=none;startFill=0;endArrow=diamondThin;endFill=1;exitX=0.25;exitY=0;exitDx=0;exitDy=0;" edge="1" parent="1" source="Qv7wDdTZeIyCimLd3heE-151" target="Qv7wDdTZeIyCimLd3heE-75">
          <mxGeometry relative="1" as="geometry" />
        </mxCell>
        <mxCell id="Qv7wDdTZeIyCimLd3heE-151" value="&lt;b&gt;MenuToolsControl&lt;/b&gt;" style="swimlane;fontStyle=0;align=center;verticalAlign=top;childLayout=stackLayout;horizontal=1;startSize=55;horizontalStack=0;resizeParent=1;resizeParentMax=0;resizeLast=0;collapsible=0;marginBottom=0;html=1;" vertex="1" parent="1">
          <mxGeometry x="1140" y="1200" width="360" height="223" as="geometry" />
        </mxCell>
        <mxCell id="Qv7wDdTZeIyCimLd3heE-152" value="attributes" style="text;html=1;strokeColor=none;fillColor=none;align=center;verticalAlign=middle;spacingLeft=4;spacingRight=4;overflow=hidden;rotatable=0;points=[[0,0.5],[1,0.5]];portConstraint=eastwest;" vertex="1" parent="Qv7wDdTZeIyCimLd3heE-151">
          <mxGeometry y="55" width="360" height="20" as="geometry" />
        </mxCell>
        <mxCell id="Qv7wDdTZeIyCimLd3heE-153" value="- view : View" style="text;html=1;strokeColor=none;fillColor=none;align=left;verticalAlign=middle;spacingLeft=4;spacingRight=4;overflow=hidden;rotatable=0;points=[[0,0.5],[1,0.5]];portConstraint=eastwest;" vertex="1" parent="Qv7wDdTZeIyCimLd3heE-151">
          <mxGeometry y="75" width="360" height="20" as="geometry" />
        </mxCell>
        <mxCell id="Qv7wDdTZeIyCimLd3heE-154" value="- model : Model" style="text;html=1;strokeColor=none;fillColor=none;align=left;verticalAlign=middle;spacingLeft=4;spacingRight=4;overflow=hidden;rotatable=0;points=[[0,0.5],[1,0.5]];portConstraint=eastwest;" vertex="1" parent="Qv7wDdTZeIyCimLd3heE-151">
          <mxGeometry y="95" width="360" height="20" as="geometry" />
        </mxCell>
        <mxCell id="Qv7wDdTZeIyCimLd3heE-155" value="- control : Control" style="text;html=1;strokeColor=none;fillColor=none;align=left;verticalAlign=middle;spacingLeft=4;spacingRight=4;overflow=hidden;rotatable=0;points=[[0,0.5],[1,0.5]];portConstraint=eastwest;" vertex="1" parent="Qv7wDdTZeIyCimLd3heE-151">
          <mxGeometry y="115" width="360" height="20" as="geometry" />
        </mxCell>
        <mxCell id="Qv7wDdTZeIyCimLd3heE-156" value="" style="line;strokeWidth=1;fillColor=none;align=left;verticalAlign=middle;spacingTop=-1;spacingLeft=3;spacingRight=3;rotatable=0;labelPosition=right;points=[];portConstraint=eastwest;" vertex="1" parent="Qv7wDdTZeIyCimLd3heE-151">
          <mxGeometry y="135" width="360" height="8" as="geometry" />
        </mxCell>
        <mxCell id="Qv7wDdTZeIyCimLd3heE-157" value="operations" style="text;html=1;strokeColor=none;fillColor=none;align=center;verticalAlign=middle;spacingLeft=4;spacingRight=4;overflow=hidden;rotatable=0;points=[[0,0.5],[1,0.5]];portConstraint=eastwest;" vertex="1" parent="Qv7wDdTZeIyCimLd3heE-151">
          <mxGeometry y="143" width="360" height="20" as="geometry" />
        </mxCell>
        <mxCell id="Qv7wDdTZeIyCimLd3heE-158" value="+ MenuToolsControl()" style="text;html=1;strokeColor=none;fillColor=none;align=left;verticalAlign=middle;spacingLeft=4;spacingRight=4;overflow=hidden;rotatable=0;points=[[0,0.5],[1,0.5]];portConstraint=eastwest;" vertex="1" parent="Qv7wDdTZeIyCimLd3heE-151">
          <mxGeometry y="163" width="360" height="20" as="geometry" />
        </mxCell>
        <mxCell id="Qv7wDdTZeIyCimLd3heE-159" value="+ MenuToolsControl(model: Model, view : View, control : Control)" style="text;html=1;strokeColor=none;fillColor=none;align=left;verticalAlign=middle;spacingLeft=4;spacingRight=4;overflow=hidden;rotatable=0;points=[[0,0.5],[1,0.5]];portConstraint=eastwest;" vertex="1" parent="Qv7wDdTZeIyCimLd3heE-151">
          <mxGeometry y="183" width="360" height="20" as="geometry" />
        </mxCell>
        <mxCell id="Qv7wDdTZeIyCimLd3heE-160" value="+ options() : void" style="text;html=1;strokeColor=none;fillColor=none;align=left;verticalAlign=middle;spacingLeft=4;spacingRight=4;overflow=hidden;rotatable=0;points=[[0,0.5],[1,0.5]];portConstraint=eastwest;" vertex="1" parent="Qv7wDdTZeIyCimLd3heE-151">
          <mxGeometry y="203" width="360" height="20" as="geometry" />
        </mxCell>
        <mxCell id="Qv7wDdTZeIyCimLd3heE-318" style="edgeStyle=orthogonalEdgeStyle;rounded=0;orthogonalLoop=1;jettySize=auto;html=1;startArrow=none;startFill=0;endArrow=diamondThin;endFill=1;" edge="1" parent="1" source="Qv7wDdTZeIyCimLd3heE-161">
          <mxGeometry relative="1" as="geometry">
            <mxPoint x="1290" y="506" as="targetPoint" />
            <Array as="points">
              <mxPoint x="1050" y="1592" />
              <mxPoint x="1050" y="506" />
            </Array>
          </mxGeometry>
        </mxCell>
        <mxCell id="Qv7wDdTZeIyCimLd3heE-161" value="&lt;b&gt;MenuFileControl&lt;/b&gt;" style="swimlane;fontStyle=0;align=center;verticalAlign=top;childLayout=stackLayout;horizontal=1;startSize=55;horizontalStack=0;resizeParent=1;resizeParentMax=0;resizeLast=0;collapsible=0;marginBottom=0;html=1;" vertex="1" parent="1">
          <mxGeometry x="1090" y="1470" width="410" height="243" as="geometry" />
        </mxCell>
        <mxCell id="Qv7wDdTZeIyCimLd3heE-162" value="attributes" style="text;html=1;strokeColor=none;fillColor=none;align=center;verticalAlign=middle;spacingLeft=4;spacingRight=4;overflow=hidden;rotatable=0;points=[[0,0.5],[1,0.5]];portConstraint=eastwest;" vertex="1" parent="Qv7wDdTZeIyCimLd3heE-161">
          <mxGeometry y="55" width="410" height="20" as="geometry" />
        </mxCell>
        <mxCell id="Qv7wDdTZeIyCimLd3heE-163" value="&lt;u&gt;- log : Log&lt;/u&gt;" style="text;html=1;strokeColor=none;fillColor=none;align=left;verticalAlign=middle;spacingLeft=4;spacingRight=4;overflow=hidden;rotatable=0;points=[[0,0.5],[1,0.5]];portConstraint=eastwest;" vertex="1" parent="Qv7wDdTZeIyCimLd3heE-161">
          <mxGeometry y="75" width="410" height="20" as="geometry" />
        </mxCell>
        <mxCell id="Qv7wDdTZeIyCimLd3heE-164" value="- view : View" style="text;html=1;strokeColor=none;fillColor=none;align=left;verticalAlign=middle;spacingLeft=4;spacingRight=4;overflow=hidden;rotatable=0;points=[[0,0.5],[1,0.5]];portConstraint=eastwest;" vertex="1" parent="Qv7wDdTZeIyCimLd3heE-161">
          <mxGeometry y="95" width="410" height="20" as="geometry" />
        </mxCell>
        <mxCell id="Qv7wDdTZeIyCimLd3heE-165" value="- model : Model" style="text;html=1;strokeColor=none;fillColor=none;align=left;verticalAlign=middle;spacingLeft=4;spacingRight=4;overflow=hidden;rotatable=0;points=[[0,0.5],[1,0.5]];portConstraint=eastwest;" vertex="1" parent="Qv7wDdTZeIyCimLd3heE-161">
          <mxGeometry y="115" width="410" height="20" as="geometry" />
        </mxCell>
        <mxCell id="Qv7wDdTZeIyCimLd3heE-171" value="- control : Control" style="text;html=1;strokeColor=none;fillColor=none;align=left;verticalAlign=middle;spacingLeft=4;spacingRight=4;overflow=hidden;rotatable=0;points=[[0,0.5],[1,0.5]];portConstraint=eastwest;" vertex="1" parent="Qv7wDdTZeIyCimLd3heE-161">
          <mxGeometry y="135" width="410" height="20" as="geometry" />
        </mxCell>
        <mxCell id="Qv7wDdTZeIyCimLd3heE-166" value="" style="line;strokeWidth=1;fillColor=none;align=left;verticalAlign=middle;spacingTop=-1;spacingLeft=3;spacingRight=3;rotatable=0;labelPosition=right;points=[];portConstraint=eastwest;" vertex="1" parent="Qv7wDdTZeIyCimLd3heE-161">
          <mxGeometry y="155" width="410" height="8" as="geometry" />
        </mxCell>
        <mxCell id="Qv7wDdTZeIyCimLd3heE-167" value="operations" style="text;html=1;strokeColor=none;fillColor=none;align=center;verticalAlign=middle;spacingLeft=4;spacingRight=4;overflow=hidden;rotatable=0;points=[[0,0.5],[1,0.5]];portConstraint=eastwest;" vertex="1" parent="Qv7wDdTZeIyCimLd3heE-161">
          <mxGeometry y="163" width="410" height="20" as="geometry" />
        </mxCell>
        <mxCell id="Qv7wDdTZeIyCimLd3heE-168" value="+ MenuFIleControl(model : Model, view : View, control : Control)" style="text;html=1;strokeColor=none;fillColor=none;align=left;verticalAlign=middle;spacingLeft=4;spacingRight=4;overflow=hidden;rotatable=0;points=[[0,0.5],[1,0.5]];portConstraint=eastwest;" vertex="1" parent="Qv7wDdTZeIyCimLd3heE-161">
          <mxGeometry y="183" width="410" height="20" as="geometry" />
        </mxCell>
        <mxCell id="Qv7wDdTZeIyCimLd3heE-169" value="+ exit() : void" style="text;html=1;strokeColor=none;fillColor=none;align=left;verticalAlign=middle;spacingLeft=4;spacingRight=4;overflow=hidden;rotatable=0;points=[[0,0.5],[1,0.5]];portConstraint=eastwest;" vertex="1" parent="Qv7wDdTZeIyCimLd3heE-161">
          <mxGeometry y="203" width="410" height="20" as="geometry" />
        </mxCell>
        <mxCell id="Qv7wDdTZeIyCimLd3heE-170" value="+ newSession(isPromptNewSession : boolean) : void" style="text;html=1;strokeColor=none;fillColor=none;align=left;verticalAlign=middle;spacingLeft=4;spacingRight=4;overflow=hidden;rotatable=0;points=[[0,0.5],[1,0.5]];portConstraint=eastwest;" vertex="1" parent="Qv7wDdTZeIyCimLd3heE-161">
          <mxGeometry y="223" width="410" height="20" as="geometry" />
        </mxCell>
        <mxCell id="Qv7wDdTZeIyCimLd3heE-333" style="edgeStyle=orthogonalEdgeStyle;rounded=0;orthogonalLoop=1;jettySize=auto;html=1;entryX=1;entryY=0.5;entryDx=0;entryDy=0;startArrow=none;startFill=0;endArrow=diamondThin;endFill=1;" edge="1" parent="1" target="Qv7wDdTZeIyCimLd3heE-260">
          <mxGeometry relative="1" as="geometry">
            <mxPoint x="3478" y="625" as="sourcePoint" />
          </mxGeometry>
        </mxCell>
        <mxCell id="Qv7wDdTZeIyCimLd3heE-338" style="edgeStyle=orthogonalEdgeStyle;rounded=0;orthogonalLoop=1;jettySize=auto;html=1;entryX=0.5;entryY=0;entryDx=0;entryDy=0;startArrow=none;startFill=0;endArrow=diamondThin;endFill=1;" edge="1" parent="1" source="Qv7wDdTZeIyCimLd3heE-172" target="Qv7wDdTZeIyCimLd3heE-131">
          <mxGeometry relative="1" as="geometry" />
        </mxCell>
        <mxCell id="Qv7wDdTZeIyCimLd3heE-172" value="&lt;b&gt;ProxyParam&lt;/b&gt;" style="swimlane;fontStyle=0;align=center;verticalAlign=top;childLayout=stackLayout;horizontal=1;startSize=55;horizontalStack=0;resizeParent=1;resizeParentMax=0;resizeLast=0;collapsible=0;marginBottom=0;html=1;" vertex="1" parent="1">
          <mxGeometry x="3480" y="478.5" width="270" height="263" as="geometry" />
        </mxCell>
        <mxCell id="Qv7wDdTZeIyCimLd3heE-173" value="attributes" style="text;html=1;strokeColor=none;fillColor=none;align=center;verticalAlign=middle;spacingLeft=4;spacingRight=4;overflow=hidden;rotatable=0;points=[[0,0.5],[1,0.5]];portConstraint=eastwest;" vertex="1" parent="Qv7wDdTZeIyCimLd3heE-172">
          <mxGeometry y="55" width="270" height="20" as="geometry" />
        </mxCell>
        <mxCell id="Qv7wDdTZeIyCimLd3heE-174" value="&lt;u&gt;- PROXY_IP : String {readOnly}&lt;/u&gt;" style="text;html=1;strokeColor=none;fillColor=none;align=left;verticalAlign=middle;spacingLeft=4;spacingRight=4;overflow=hidden;rotatable=0;points=[[0,0.5],[1,0.5]];portConstraint=eastwest;" vertex="1" parent="Qv7wDdTZeIyCimLd3heE-172">
          <mxGeometry y="75" width="270" height="20" as="geometry" />
        </mxCell>
        <mxCell id="Qv7wDdTZeIyCimLd3heE-175" value="&lt;u&gt;- PROXY_PORT : String {readOnly}&lt;/u&gt;" style="text;html=1;strokeColor=none;fillColor=none;align=left;verticalAlign=middle;spacingLeft=4;spacingRight=4;overflow=hidden;rotatable=0;points=[[0,0.5],[1,0.5]];portConstraint=eastwest;" vertex="1" parent="Qv7wDdTZeIyCimLd3heE-172">
          <mxGeometry y="95" width="270" height="20" as="geometry" />
        </mxCell>
        <mxCell id="Qv7wDdTZeIyCimLd3heE-176" value="- USE_REVERSE_PROXY : String {readOnly}" style="text;html=1;strokeColor=none;fillColor=none;align=left;verticalAlign=middle;spacingLeft=4;spacingRight=4;overflow=hidden;rotatable=0;points=[[0,0.5],[1,0.5]];portConstraint=eastwest;" vertex="1" parent="Qv7wDdTZeIyCimLd3heE-172">
          <mxGeometry y="115" width="270" height="20" as="geometry" />
        </mxCell>
        <mxCell id="Qv7wDdTZeIyCimLd3heE-178" value="" style="line;strokeWidth=1;fillColor=none;align=left;verticalAlign=middle;spacingTop=-1;spacingLeft=3;spacingRight=3;rotatable=0;labelPosition=right;points=[];portConstraint=eastwest;" vertex="1" parent="Qv7wDdTZeIyCimLd3heE-172">
          <mxGeometry y="135" width="270" height="8" as="geometry" />
        </mxCell>
        <mxCell id="Qv7wDdTZeIyCimLd3heE-179" value="operations" style="text;html=1;strokeColor=none;fillColor=none;align=center;verticalAlign=middle;spacingLeft=4;spacingRight=4;overflow=hidden;rotatable=0;points=[[0,0.5],[1,0.5]];portConstraint=eastwest;" vertex="1" parent="Qv7wDdTZeIyCimLd3heE-172">
          <mxGeometry y="143" width="270" height="20" as="geometry" />
        </mxCell>
        <mxCell id="Qv7wDdTZeIyCimLd3heE-273" value="+ ProxyParam()" style="text;html=1;strokeColor=none;fillColor=none;align=left;verticalAlign=middle;spacingLeft=4;spacingRight=4;overflow=hidden;rotatable=0;points=[[0,0.5],[1,0.5]];portConstraint=eastwest;" vertex="1" parent="Qv7wDdTZeIyCimLd3heE-172">
          <mxGeometry y="163" width="270" height="20" as="geometry" />
        </mxCell>
        <mxCell id="Qv7wDdTZeIyCimLd3heE-180" value="# parse() : void" style="text;html=1;strokeColor=none;fillColor=none;align=left;verticalAlign=middle;spacingLeft=4;spacingRight=4;overflow=hidden;rotatable=0;points=[[0,0.5],[1,0.5]];portConstraint=eastwest;" vertex="1" parent="Qv7wDdTZeIyCimLd3heE-172">
          <mxGeometry y="183" width="270" height="20" as="geometry" />
        </mxCell>
        <mxCell id="Qv7wDdTZeIyCimLd3heE-181" value="+ getProxyIP() : String" style="text;html=1;strokeColor=none;fillColor=none;align=left;verticalAlign=middle;spacingLeft=4;spacingRight=4;overflow=hidden;rotatable=0;points=[[0,0.5],[1,0.5]];portConstraint=eastwest;" vertex="1" parent="Qv7wDdTZeIyCimLd3heE-172">
          <mxGeometry y="203" width="270" height="20" as="geometry" />
        </mxCell>
        <mxCell id="Qv7wDdTZeIyCimLd3heE-274" value="+ isUseReverseProxy() : boolean" style="text;html=1;strokeColor=none;fillColor=none;align=left;verticalAlign=middle;spacingLeft=4;spacingRight=4;overflow=hidden;rotatable=0;points=[[0,0.5],[1,0.5]];portConstraint=eastwest;" vertex="1" parent="Qv7wDdTZeIyCimLd3heE-172">
          <mxGeometry y="223" width="270" height="20" as="geometry" />
        </mxCell>
        <mxCell id="Qv7wDdTZeIyCimLd3heE-182" value="+ setProxyIP() : void" style="text;html=1;strokeColor=none;fillColor=none;align=left;verticalAlign=middle;spacingLeft=4;spacingRight=4;overflow=hidden;rotatable=0;points=[[0,0.5],[1,0.5]];portConstraint=eastwest;" vertex="1" parent="Qv7wDdTZeIyCimLd3heE-172">
          <mxGeometry y="243" width="270" height="20" as="geometry" />
        </mxCell>
        <mxCell id="Qv7wDdTZeIyCimLd3heE-183" value="&lt;b&gt;HttpUtil&lt;/b&gt;" style="swimlane;fontStyle=0;align=center;verticalAlign=top;childLayout=stackLayout;horizontal=1;startSize=55;horizontalStack=0;resizeParent=1;resizeParentMax=0;resizeLast=0;collapsible=0;marginBottom=0;html=1;" vertex="1" parent="1">
          <mxGeometry x="3040" y="140" width="290" height="223" as="geometry" />
        </mxCell>
        <mxCell id="Qv7wDdTZeIyCimLd3heE-184" value="attributes" style="text;html=1;strokeColor=none;fillColor=none;align=center;verticalAlign=middle;spacingLeft=4;spacingRight=4;overflow=hidden;rotatable=0;points=[[0,0.5],[1,0.5]];portConstraint=eastwest;" vertex="1" parent="Qv7wDdTZeIyCimLd3heE-183">
          <mxGeometry y="55" width="290" height="20" as="geometry" />
        </mxCell>
        <mxCell id="Qv7wDdTZeIyCimLd3heE-188" value="" style="line;strokeWidth=1;fillColor=none;align=left;verticalAlign=middle;spacingTop=-1;spacingLeft=3;spacingRight=3;rotatable=0;labelPosition=right;points=[];portConstraint=eastwest;" vertex="1" parent="Qv7wDdTZeIyCimLd3heE-183">
          <mxGeometry y="75" width="290" height="8" as="geometry" />
        </mxCell>
        <mxCell id="Qv7wDdTZeIyCimLd3heE-189" value="operations" style="text;html=1;strokeColor=none;fillColor=none;align=center;verticalAlign=middle;spacingLeft=4;spacingRight=4;overflow=hidden;rotatable=0;points=[[0,0.5],[1,0.5]];portConstraint=eastwest;" vertex="1" parent="Qv7wDdTZeIyCimLd3heE-183">
          <mxGeometry y="83" width="290" height="20" as="geometry" />
        </mxCell>
        <mxCell id="Qv7wDdTZeIyCimLd3heE-190" value="&lt;u&gt;+ encoderURI(url : String) : String&lt;/u&gt;" style="text;html=1;strokeColor=none;fillColor=none;align=left;verticalAlign=middle;spacingLeft=4;spacingRight=4;overflow=hidden;rotatable=0;points=[[0,0.5],[1,0.5]];portConstraint=eastwest;" vertex="1" parent="Qv7wDdTZeIyCimLd3heE-183">
          <mxGeometry y="103" width="290" height="20" as="geometry" />
        </mxCell>
        <mxCell id="Qv7wDdTZeIyCimLd3heE-191" value="&lt;u&gt;+ sleep(ms : int) : void&lt;/u&gt;" style="text;html=1;strokeColor=none;fillColor=none;align=left;verticalAlign=middle;spacingLeft=4;spacingRight=4;overflow=hidden;rotatable=0;points=[[0,0.5],[1,0.5]];portConstraint=eastwest;" vertex="1" parent="Qv7wDdTZeIyCimLd3heE-183">
          <mxGeometry y="123" width="290" height="20" as="geometry" />
        </mxCell>
        <mxCell id="Qv7wDdTZeIyCimLd3heE-192" value="&lt;u&gt;+ closeServerSocket(socket : ServerSocket) : void&lt;/u&gt;" style="text;html=1;strokeColor=none;fillColor=none;align=left;verticalAlign=middle;spacingLeft=4;spacingRight=4;overflow=hidden;rotatable=0;points=[[0,0.5],[1,0.5]];portConstraint=eastwest;" vertex="1" parent="Qv7wDdTZeIyCimLd3heE-183">
          <mxGeometry y="143" width="290" height="20" as="geometry" />
        </mxCell>
        <mxCell id="Qv7wDdTZeIyCimLd3heE-275" value="&lt;u&gt;+ closeSocket(socket : Socket) : void&lt;/u&gt;" style="text;html=1;strokeColor=none;fillColor=none;align=left;verticalAlign=middle;spacingLeft=4;spacingRight=4;overflow=hidden;rotatable=0;points=[[0,0.5],[1,0.5]];portConstraint=eastwest;" vertex="1" parent="Qv7wDdTZeIyCimLd3heE-183">
          <mxGeometry y="163" width="290" height="20" as="geometry" />
        </mxCell>
        <mxCell id="Qv7wDdTZeIyCimLd3heE-276" value="&lt;u&gt;+closeInputStream(in : InputStream) : void&lt;/u&gt;" style="text;html=1;strokeColor=none;fillColor=none;align=left;verticalAlign=middle;spacingLeft=4;spacingRight=4;overflow=hidden;rotatable=0;points=[[0,0.5],[1,0.5]];portConstraint=eastwest;" vertex="1" parent="Qv7wDdTZeIyCimLd3heE-183">
          <mxGeometry y="183" width="290" height="20" as="geometry" />
        </mxCell>
        <mxCell id="Qv7wDdTZeIyCimLd3heE-277" value="&lt;u&gt;+closeOutputStream(out : OutputStream) : void&lt;/u&gt;" style="text;html=1;strokeColor=none;fillColor=none;align=left;verticalAlign=middle;spacingLeft=4;spacingRight=4;overflow=hidden;rotatable=0;points=[[0,0.5],[1,0.5]];portConstraint=eastwest;" vertex="1" parent="Qv7wDdTZeIyCimLd3heE-183">
          <mxGeometry y="203" width="290" height="20" as="geometry" />
        </mxCell>
        <mxCell id="Qv7wDdTZeIyCimLd3heE-193" value="&lt;b&gt;AbstractParam&lt;/b&gt;" style="swimlane;fontStyle=0;align=center;verticalAlign=top;childLayout=stackLayout;horizontal=1;startSize=55;horizontalStack=0;resizeParent=1;resizeParentMax=0;resizeLast=0;collapsible=0;marginBottom=0;html=1;" vertex="1" parent="1">
          <mxGeometry x="3480" y="1300" width="270" height="203" as="geometry" />
        </mxCell>
        <mxCell id="Qv7wDdTZeIyCimLd3heE-194" value="attributes" style="text;html=1;strokeColor=none;fillColor=none;align=center;verticalAlign=middle;spacingLeft=4;spacingRight=4;overflow=hidden;rotatable=0;points=[[0,0.5],[1,0.5]];portConstraint=eastwest;" vertex="1" parent="Qv7wDdTZeIyCimLd3heE-193">
          <mxGeometry y="55" width="270" height="20" as="geometry" />
        </mxCell>
        <mxCell id="Qv7wDdTZeIyCimLd3heE-278" value="- config : FileConfiguration" style="text;html=1;strokeColor=none;fillColor=none;align=left;verticalAlign=middle;spacingLeft=4;spacingRight=4;overflow=hidden;rotatable=0;points=[[0,0.5],[1,0.5]];portConstraint=eastwest;" vertex="1" parent="Qv7wDdTZeIyCimLd3heE-193">
          <mxGeometry y="75" width="270" height="20" as="geometry" />
        </mxCell>
        <mxCell id="Qv7wDdTZeIyCimLd3heE-198" value="" style="line;strokeWidth=1;fillColor=none;align=left;verticalAlign=middle;spacingTop=-1;spacingLeft=3;spacingRight=3;rotatable=0;labelPosition=right;points=[];portConstraint=eastwest;" vertex="1" parent="Qv7wDdTZeIyCimLd3heE-193">
          <mxGeometry y="95" width="270" height="8" as="geometry" />
        </mxCell>
        <mxCell id="Qv7wDdTZeIyCimLd3heE-199" value="operations" style="text;html=1;strokeColor=none;fillColor=none;align=center;verticalAlign=middle;spacingLeft=4;spacingRight=4;overflow=hidden;rotatable=0;points=[[0,0.5],[1,0.5]];portConstraint=eastwest;" vertex="1" parent="Qv7wDdTZeIyCimLd3heE-193">
          <mxGeometry y="103" width="270" height="20" as="geometry" />
        </mxCell>
        <mxCell id="Qv7wDdTZeIyCimLd3heE-201" value="+ load(config : FileConfiguration) : void" style="text;html=1;strokeColor=none;fillColor=none;align=left;verticalAlign=middle;spacingLeft=4;spacingRight=4;overflow=hidden;rotatable=0;points=[[0,0.5],[1,0.5]];portConstraint=eastwest;" vertex="1" parent="Qv7wDdTZeIyCimLd3heE-193">
          <mxGeometry y="123" width="270" height="20" as="geometry" />
        </mxCell>
        <mxCell id="Qv7wDdTZeIyCimLd3heE-279" value="+ load(fileName : String) : void" style="text;html=1;strokeColor=none;fillColor=none;align=left;verticalAlign=middle;spacingLeft=4;spacingRight=4;overflow=hidden;rotatable=0;points=[[0,0.5],[1,0.5]];portConstraint=eastwest;" vertex="1" parent="Qv7wDdTZeIyCimLd3heE-193">
          <mxGeometry y="143" width="270" height="20" as="geometry" />
        </mxCell>
        <mxCell id="Qv7wDdTZeIyCimLd3heE-280" value="+ load() : void" style="text;html=1;strokeColor=none;fillColor=none;align=left;verticalAlign=middle;spacingLeft=4;spacingRight=4;overflow=hidden;rotatable=0;points=[[0,0.5],[1,0.5]];portConstraint=eastwest;" vertex="1" parent="Qv7wDdTZeIyCimLd3heE-193">
          <mxGeometry y="163" width="270" height="20" as="geometry" />
        </mxCell>
        <mxCell id="Qv7wDdTZeIyCimLd3heE-202" value="+ getconfig() : FileConfiguration" style="text;html=1;strokeColor=none;fillColor=none;align=left;verticalAlign=middle;spacingLeft=4;spacingRight=4;overflow=hidden;rotatable=0;points=[[0,0.5],[1,0.5]];portConstraint=eastwest;" vertex="1" parent="Qv7wDdTZeIyCimLd3heE-193">
          <mxGeometry y="183" width="270" height="20" as="geometry" />
        </mxCell>
        <mxCell id="Qv7wDdTZeIyCimLd3heE-319" style="edgeStyle=orthogonalEdgeStyle;rounded=0;orthogonalLoop=1;jettySize=auto;html=1;startArrow=none;startFill=0;endArrow=block;endFill=0;dashed=1;entryX=0;entryY=0.5;entryDx=0;entryDy=0;" edge="1" parent="1" source="Qv7wDdTZeIyCimLd3heE-203" target="Qv7wDdTZeIyCimLd3heE-287">
          <mxGeometry relative="1" as="geometry">
            <mxPoint x="2150" y="1790" as="targetPoint" />
          </mxGeometry>
        </mxCell>
        <mxCell id="Qv7wDdTZeIyCimLd3heE-320" style="edgeStyle=orthogonalEdgeStyle;rounded=0;orthogonalLoop=1;jettySize=auto;html=1;entryX=1;entryY=0.5;entryDx=0;entryDy=0;startArrow=none;startFill=0;endArrow=diamond;endFill=0;exitX=0;exitY=0.5;exitDx=0;exitDy=0;" edge="1" parent="1" source="Qv7wDdTZeIyCimLd3heE-207" target="Qv7wDdTZeIyCimLd3heE-159">
          <mxGeometry relative="1" as="geometry">
            <Array as="points">
              <mxPoint x="1680" y="1745" />
              <mxPoint x="1680" y="1393" />
            </Array>
          </mxGeometry>
        </mxCell>
        <mxCell id="Qv7wDdTZeIyCimLd3heE-321" style="edgeStyle=orthogonalEdgeStyle;rounded=0;orthogonalLoop=1;jettySize=auto;html=1;entryX=1;entryY=0.5;entryDx=0;entryDy=0;startArrow=none;startFill=0;endArrow=diamond;endFill=0;" edge="1" parent="1" source="Qv7wDdTZeIyCimLd3heE-203" target="Qv7wDdTZeIyCimLd3heE-165">
          <mxGeometry relative="1" as="geometry">
            <Array as="points">
              <mxPoint x="1640" y="1792" />
              <mxPoint x="1640" y="1595" />
            </Array>
          </mxGeometry>
        </mxCell>
        <mxCell id="Qv7wDdTZeIyCimLd3heE-203" value="&lt;b&gt;View&lt;/b&gt;" style="swimlane;fontStyle=0;align=center;verticalAlign=top;childLayout=stackLayout;horizontal=1;startSize=55;horizontalStack=0;resizeParent=1;resizeParentMax=0;resizeLast=0;collapsible=0;marginBottom=0;html=1;" vertex="1" parent="1">
          <mxGeometry x="1770" y="1620" width="270" height="343" as="geometry" />
        </mxCell>
        <mxCell id="Qv7wDdTZeIyCimLd3heE-204" value="attributes" style="text;html=1;strokeColor=none;fillColor=none;align=center;verticalAlign=middle;spacingLeft=4;spacingRight=4;overflow=hidden;rotatable=0;points=[[0,0.5],[1,0.5]];portConstraint=eastwest;" vertex="1" parent="Qv7wDdTZeIyCimLd3heE-203">
          <mxGeometry y="55" width="270" height="20" as="geometry" />
        </mxCell>
        <mxCell id="Qv7wDdTZeIyCimLd3heE-205" value="&lt;u&gt;- view : View&lt;/u&gt;" style="text;html=1;strokeColor=none;fillColor=none;align=left;verticalAlign=middle;spacingLeft=4;spacingRight=4;overflow=hidden;rotatable=0;points=[[0,0.5],[1,0.5]];portConstraint=eastwest;" vertex="1" parent="Qv7wDdTZeIyCimLd3heE-203">
          <mxGeometry y="75" width="270" height="20" as="geometry" />
        </mxCell>
        <mxCell id="Qv7wDdTZeIyCimLd3heE-206" value="- sessionDialog : SessionDialog" style="text;html=1;strokeColor=none;fillColor=none;align=left;verticalAlign=middle;spacingLeft=4;spacingRight=4;overflow=hidden;rotatable=0;points=[[0,0.5],[1,0.5]];portConstraint=eastwest;" vertex="1" parent="Qv7wDdTZeIyCimLd3heE-203">
          <mxGeometry y="95" width="270" height="20" as="geometry" />
        </mxCell>
        <mxCell id="Qv7wDdTZeIyCimLd3heE-207" value="- optionsDialog : OptionsDialog" style="text;html=1;strokeColor=none;fillColor=none;align=left;verticalAlign=middle;spacingLeft=4;spacingRight=4;overflow=hidden;rotatable=0;points=[[0,0.5],[1,0.5]];portConstraint=eastwest;" vertex="1" parent="Qv7wDdTZeIyCimLd3heE-203">
          <mxGeometry y="115" width="270" height="20" as="geometry" />
        </mxCell>
        <mxCell id="Qv7wDdTZeIyCimLd3heE-281" value="- mainFrame : MainFrame" style="text;html=1;strokeColor=none;fillColor=none;align=left;verticalAlign=middle;spacingLeft=4;spacingRight=4;overflow=hidden;rotatable=0;points=[[0,0.5],[1,0.5]];portConstraint=eastwest;" vertex="1" parent="Qv7wDdTZeIyCimLd3heE-203">
          <mxGeometry y="135" width="270" height="20" as="geometry" />
        </mxCell>
        <mxCell id="Qv7wDdTZeIyCimLd3heE-282" value="- responsePanel : HttpPanel" style="text;html=1;strokeColor=none;fillColor=none;align=left;verticalAlign=middle;spacingLeft=4;spacingRight=4;overflow=hidden;rotatable=0;points=[[0,0.5],[1,0.5]];portConstraint=eastwest;" vertex="1" parent="Qv7wDdTZeIyCimLd3heE-203">
          <mxGeometry y="155" width="270" height="20" as="geometry" />
        </mxCell>
        <mxCell id="Qv7wDdTZeIyCimLd3heE-283" value="- outputPanel : OutputPanel" style="text;html=1;strokeColor=none;fillColor=none;align=left;verticalAlign=middle;spacingLeft=4;spacingRight=4;overflow=hidden;rotatable=0;points=[[0,0.5],[1,0.5]];portConstraint=eastwest;" vertex="1" parent="Qv7wDdTZeIyCimLd3heE-203">
          <mxGeometry y="175" width="270" height="20" as="geometry" />
        </mxCell>
        <mxCell id="Qv7wDdTZeIyCimLd3heE-284" value="-siteMapPanel : SiteMapPanel" style="text;html=1;strokeColor=none;fillColor=none;align=left;verticalAlign=middle;spacingLeft=4;spacingRight=4;overflow=hidden;rotatable=0;points=[[0,0.5],[1,0.5]];portConstraint=eastwest;" vertex="1" parent="Qv7wDdTZeIyCimLd3heE-203">
          <mxGeometry y="195" width="270" height="20" as="geometry" />
        </mxCell>
        <mxCell id="Qv7wDdTZeIyCimLd3heE-208" value="" style="line;strokeWidth=1;fillColor=none;align=left;verticalAlign=middle;spacingTop=-1;spacingLeft=3;spacingRight=3;rotatable=0;labelPosition=right;points=[];portConstraint=eastwest;" vertex="1" parent="Qv7wDdTZeIyCimLd3heE-203">
          <mxGeometry y="215" width="270" height="8" as="geometry" />
        </mxCell>
        <mxCell id="Qv7wDdTZeIyCimLd3heE-209" value="operations" style="text;html=1;strokeColor=none;fillColor=none;align=center;verticalAlign=middle;spacingLeft=4;spacingRight=4;overflow=hidden;rotatable=0;points=[[0,0.5],[1,0.5]];portConstraint=eastwest;" vertex="1" parent="Qv7wDdTZeIyCimLd3heE-203">
          <mxGeometry y="223" width="270" height="20" as="geometry" />
        </mxCell>
        <mxCell id="Qv7wDdTZeIyCimLd3heE-210" value="+ getMainFrame : MainFrame" style="text;html=1;strokeColor=none;fillColor=none;align=left;verticalAlign=middle;spacingLeft=4;spacingRight=4;overflow=hidden;rotatable=0;points=[[0,0.5],[1,0.5]];portConstraint=eastwest;" vertex="1" parent="Qv7wDdTZeIyCimLd3heE-203">
          <mxGeometry y="243" width="270" height="20" as="geometry" />
        </mxCell>
        <mxCell id="Qv7wDdTZeIyCimLd3heE-211" value="+ init() : void" style="text;html=1;strokeColor=none;fillColor=none;align=left;verticalAlign=middle;spacingLeft=4;spacingRight=4;overflow=hidden;rotatable=0;points=[[0,0.5],[1,0.5]];portConstraint=eastwest;" vertex="1" parent="Qv7wDdTZeIyCimLd3heE-203">
          <mxGeometry y="263" width="270" height="20" as="geometry" />
        </mxCell>
        <mxCell id="Qv7wDdTZeIyCimLd3heE-212" value="+ postInit() : void" style="text;html=1;strokeColor=none;fillColor=none;align=left;verticalAlign=middle;spacingLeft=4;spacingRight=4;overflow=hidden;rotatable=0;points=[[0,0.5],[1,0.5]];portConstraint=eastwest;" vertex="1" parent="Qv7wDdTZeIyCimLd3heE-203">
          <mxGeometry y="283" width="270" height="20" as="geometry" />
        </mxCell>
        <mxCell id="Qv7wDdTZeIyCimLd3heE-285" value="+ getWorkbench() : WorkbenchPanel" style="text;html=1;strokeColor=none;fillColor=none;align=left;verticalAlign=middle;spacingLeft=4;spacingRight=4;overflow=hidden;rotatable=0;points=[[0,0.5],[1,0.5]];portConstraint=eastwest;" vertex="1" parent="Qv7wDdTZeIyCimLd3heE-203">
          <mxGeometry y="303" width="270" height="20" as="geometry" />
        </mxCell>
        <mxCell id="Qv7wDdTZeIyCimLd3heE-286" value="+ getRequestPanel : HttpPanel" style="text;html=1;strokeColor=none;fillColor=none;align=left;verticalAlign=middle;spacingLeft=4;spacingRight=4;overflow=hidden;rotatable=0;points=[[0,0.5],[1,0.5]];portConstraint=eastwest;" vertex="1" parent="Qv7wDdTZeIyCimLd3heE-203">
          <mxGeometry y="323" width="270" height="20" as="geometry" />
        </mxCell>
        <mxCell id="Qv7wDdTZeIyCimLd3heE-213" value="&lt;b&gt;ViewDelegate&lt;/b&gt;" style="swimlane;fontStyle=0;align=center;verticalAlign=top;childLayout=stackLayout;horizontal=1;startSize=55;horizontalStack=0;resizeParent=1;resizeParentMax=0;resizeLast=0;collapsible=0;marginBottom=0;html=1;" vertex="1" parent="1">
          <mxGeometry x="2170" y="1620" width="350" height="343" as="geometry" />
        </mxCell>
        <mxCell id="Qv7wDdTZeIyCimLd3heE-214" value="attributes" style="text;html=1;strokeColor=none;fillColor=none;align=center;verticalAlign=middle;spacingLeft=4;spacingRight=4;overflow=hidden;rotatable=0;points=[[0,0.5],[1,0.5]];portConstraint=eastwest;" vertex="1" parent="Qv7wDdTZeIyCimLd3heE-213">
          <mxGeometry y="55" width="350" height="20" as="geometry" />
        </mxCell>
        <mxCell id="Qv7wDdTZeIyCimLd3heE-215" value="" style="line;strokeWidth=1;fillColor=none;align=left;verticalAlign=middle;spacingTop=-1;spacingLeft=3;spacingRight=3;rotatable=0;labelPosition=right;points=[];portConstraint=eastwest;" vertex="1" parent="Qv7wDdTZeIyCimLd3heE-213">
          <mxGeometry y="75" width="350" height="8" as="geometry" />
        </mxCell>
        <mxCell id="Qv7wDdTZeIyCimLd3heE-216" value="operations" style="text;html=1;strokeColor=none;fillColor=none;align=center;verticalAlign=middle;spacingLeft=4;spacingRight=4;overflow=hidden;rotatable=0;points=[[0,0.5],[1,0.5]];portConstraint=eastwest;" vertex="1" parent="Qv7wDdTZeIyCimLd3heE-213">
          <mxGeometry y="83" width="350" height="20" as="geometry" />
        </mxCell>
        <mxCell id="Qv7wDdTZeIyCimLd3heE-217" value="+ getMainFrame() : MainFrame" style="text;html=1;strokeColor=none;fillColor=none;align=left;verticalAlign=middle;spacingLeft=4;spacingRight=4;overflow=hidden;rotatable=0;points=[[0,0.5],[1,0.5]];portConstraint=eastwest;" vertex="1" parent="Qv7wDdTZeIyCimLd3heE-213">
          <mxGeometry y="103" width="350" height="20" as="geometry" />
        </mxCell>
        <mxCell id="Qv7wDdTZeIyCimLd3heE-218" value="+ getSiteTreePanel() : SiteMapPanel" style="text;html=1;strokeColor=none;fillColor=none;align=left;verticalAlign=middle;spacingLeft=4;spacingRight=4;overflow=hidden;rotatable=0;points=[[0,0.5],[1,0.5]];portConstraint=eastwest;" vertex="1" parent="Qv7wDdTZeIyCimLd3heE-213">
          <mxGeometry y="123" width="350" height="20" as="geometry" />
        </mxCell>
        <mxCell id="Qv7wDdTZeIyCimLd3heE-219" value="+ getOutputPanel() : OutputPanel" style="text;html=1;strokeColor=none;fillColor=none;align=left;verticalAlign=middle;spacingLeft=4;spacingRight=4;overflow=hidden;rotatable=0;points=[[0,0.5],[1,0.5]];portConstraint=eastwest;" vertex="1" parent="Qv7wDdTZeIyCimLd3heE-213">
          <mxGeometry y="143" width="350" height="20" as="geometry" />
        </mxCell>
        <mxCell id="Qv7wDdTZeIyCimLd3heE-287" value="+ showConfirmDialog(msg : String) : int" style="text;html=1;strokeColor=none;fillColor=none;align=left;verticalAlign=middle;spacingLeft=4;spacingRight=4;overflow=hidden;rotatable=0;points=[[0,0.5],[1,0.5]];portConstraint=eastwest;" vertex="1" parent="Qv7wDdTZeIyCimLd3heE-213">
          <mxGeometry y="163" width="350" height="20" as="geometry" />
        </mxCell>
        <mxCell id="Qv7wDdTZeIyCimLd3heE-288" value="+ showYesNoCancelDialog(msg : String) : int" style="text;html=1;strokeColor=none;fillColor=none;align=left;verticalAlign=middle;spacingLeft=4;spacingRight=4;overflow=hidden;rotatable=0;points=[[0,0.5],[1,0.5]];portConstraint=eastwest;" vertex="1" parent="Qv7wDdTZeIyCimLd3heE-213">
          <mxGeometry y="183" width="350" height="20" as="geometry" />
        </mxCell>
        <mxCell id="Qv7wDdTZeIyCimLd3heE-289" value="+ showWarningDialog(msg : String) : void" style="text;html=1;strokeColor=none;fillColor=none;align=left;verticalAlign=middle;spacingLeft=4;spacingRight=4;overflow=hidden;rotatable=0;points=[[0,0.5],[1,0.5]];portConstraint=eastwest;" vertex="1" parent="Qv7wDdTZeIyCimLd3heE-213">
          <mxGeometry y="203" width="350" height="20" as="geometry" />
        </mxCell>
        <mxCell id="Qv7wDdTZeIyCimLd3heE-290" value="+&amp;nbsp; showMessageDialog(msg : String) : void" style="text;html=1;strokeColor=none;fillColor=none;align=left;verticalAlign=middle;spacingLeft=4;spacingRight=4;overflow=hidden;rotatable=0;points=[[0,0.5],[1,0.5]];portConstraint=eastwest;" vertex="1" parent="Qv7wDdTZeIyCimLd3heE-213">
          <mxGeometry y="223" width="350" height="20" as="geometry" />
        </mxCell>
        <mxCell id="Qv7wDdTZeIyCimLd3heE-291" value="+ getWaitMessageDialog(msg: String) : WaitMessageDialog" style="text;html=1;strokeColor=none;fillColor=none;align=left;verticalAlign=middle;spacingLeft=4;spacingRight=4;overflow=hidden;rotatable=0;points=[[0,0.5],[1,0.5]];portConstraint=eastwest;" vertex="1" parent="Qv7wDdTZeIyCimLd3heE-213">
          <mxGeometry y="243" width="350" height="20" as="geometry" />
        </mxCell>
        <mxCell id="Qv7wDdTZeIyCimLd3heE-292" value="+ getPopupMenu() : MainPopupMenu" style="text;html=1;strokeColor=none;fillColor=none;align=left;verticalAlign=middle;spacingLeft=4;spacingRight=4;overflow=hidden;rotatable=0;points=[[0,0.5],[1,0.5]];portConstraint=eastwest;" vertex="1" parent="Qv7wDdTZeIyCimLd3heE-213">
          <mxGeometry y="263" width="350" height="20" as="geometry" />
        </mxCell>
        <mxCell id="Qv7wDdTZeIyCimLd3heE-293" value="+ setStatus(msg : String) : void" style="text;html=1;strokeColor=none;fillColor=none;align=left;verticalAlign=middle;spacingLeft=4;spacingRight=4;overflow=hidden;rotatable=0;points=[[0,0.5],[1,0.5]];portConstraint=eastwest;" vertex="1" parent="Qv7wDdTZeIyCimLd3heE-213">
          <mxGeometry y="283" width="350" height="20" as="geometry" />
        </mxCell>
        <mxCell id="Qv7wDdTZeIyCimLd3heE-294" value="+ getRequestPanel() : HttpPanel" style="text;html=1;strokeColor=none;fillColor=none;align=left;verticalAlign=middle;spacingLeft=4;spacingRight=4;overflow=hidden;rotatable=0;points=[[0,0.5],[1,0.5]];portConstraint=eastwest;" vertex="1" parent="Qv7wDdTZeIyCimLd3heE-213">
          <mxGeometry y="303" width="350" height="20" as="geometry" />
        </mxCell>
        <mxCell id="Qv7wDdTZeIyCimLd3heE-295" value="+ getResponsePanel() : HttpPanel" style="text;html=1;strokeColor=none;fillColor=none;align=left;verticalAlign=middle;spacingLeft=4;spacingRight=4;overflow=hidden;rotatable=0;points=[[0,0.5],[1,0.5]];portConstraint=eastwest;" vertex="1" parent="Qv7wDdTZeIyCimLd3heE-213">
          <mxGeometry y="323" width="350" height="20" as="geometry" />
        </mxCell>
        <mxCell id="Qv7wDdTZeIyCimLd3heE-299" value="&amp;lt;&amp;lt;use&amp;gt;&amp;gt;" style="text;html=1;resizable=0;autosize=1;align=center;verticalAlign=middle;points=[];fillColor=none;strokeColor=none;rounded=0;" vertex="1" parent="1">
          <mxGeometry x="1690" y="603" width="60" height="20" as="geometry" />
        </mxCell>
        <mxCell id="Qv7wDdTZeIyCimLd3heE-301" value="&amp;lt;&amp;lt;use&amp;gt;&amp;gt;" style="text;html=1;resizable=0;autosize=1;align=center;verticalAlign=middle;points=[];fillColor=none;strokeColor=none;rounded=0;" vertex="1" parent="1">
          <mxGeometry x="2060" y="600" width="60" height="20" as="geometry" />
        </mxCell>
        <mxCell id="Qv7wDdTZeIyCimLd3heE-304" style="edgeStyle=orthogonalEdgeStyle;rounded=0;orthogonalLoop=1;jettySize=auto;html=1;entryX=0.998;entryY=0.375;entryDx=0;entryDy=0;entryPerimeter=0;endArrow=diamondThin;endFill=0;" edge="1" parent="1" source="Qv7wDdTZeIyCimLd3heE-58" target="Qv7wDdTZeIyCimLd3heE-156">
          <mxGeometry relative="1" as="geometry">
            <Array as="points">
              <mxPoint x="1680" y="1093" />
              <mxPoint x="1680" y="1338" />
            </Array>
          </mxGeometry>
        </mxCell>
        <mxCell id="Qv7wDdTZeIyCimLd3heE-305" style="edgeStyle=orthogonalEdgeStyle;rounded=0;orthogonalLoop=1;jettySize=auto;html=1;endArrow=diamondThin;endFill=0;exitX=0;exitY=0.5;exitDx=0;exitDy=0;" edge="1" parent="1" source="Qv7wDdTZeIyCimLd3heE-57">
          <mxGeometry relative="1" as="geometry">
            <mxPoint x="1770" y="1153" as="sourcePoint" />
            <mxPoint x="1500" y="1500" as="targetPoint" />
            <Array as="points">
              <mxPoint x="1740" y="1133" />
              <mxPoint x="1740" y="1500" />
            </Array>
          </mxGeometry>
        </mxCell>
        <mxCell id="Qv7wDdTZeIyCimLd3heE-307" style="edgeStyle=orthogonalEdgeStyle;rounded=0;orthogonalLoop=1;jettySize=auto;html=1;entryX=0;entryY=0.5;entryDx=0;entryDy=0;startArrow=none;startFill=0;endArrow=block;endFill=0;exitX=1.007;exitY=0.079;exitDx=0;exitDy=0;exitPerimeter=0;" edge="1" parent="1" source="Qv7wDdTZeIyCimLd3heE-238" target="Qv7wDdTZeIyCimLd3heE-43">
          <mxGeometry relative="1" as="geometry" />
        </mxCell>
        <mxCell id="Qv7wDdTZeIyCimLd3heE-310" style="edgeStyle=orthogonalEdgeStyle;rounded=0;orthogonalLoop=1;jettySize=auto;html=1;entryX=0.5;entryY=0;entryDx=0;entryDy=0;dashed=1;startArrow=none;startFill=0;endArrow=open;endFill=0;" edge="1" parent="1" target="Qv7wDdTZeIyCimLd3heE-14">
          <mxGeometry relative="1" as="geometry">
            <mxPoint x="1460" y="480" as="sourcePoint" />
            <Array as="points">
              <mxPoint x="1460" y="450" />
              <mxPoint x="2305" y="450" />
            </Array>
          </mxGeometry>
        </mxCell>
        <mxCell id="Qv7wDdTZeIyCimLd3heE-314" value="&amp;lt;&amp;lt;use&amp;gt;&amp;gt;" style="text;html=1;resizable=0;autosize=1;align=center;verticalAlign=middle;points=[];fillColor=none;strokeColor=none;rounded=0;" vertex="1" parent="1">
          <mxGeometry x="1860" y="420" width="60" height="20" as="geometry" />
        </mxCell>
        <mxCell id="Qv7wDdTZeIyCimLd3heE-316" style="edgeStyle=orthogonalEdgeStyle;rounded=0;orthogonalLoop=1;jettySize=auto;html=1;entryX=0.046;entryY=0.001;entryDx=0;entryDy=0;entryPerimeter=0;startArrow=none;startFill=0;endArrow=diamondThin;endFill=0;" edge="1" parent="1" source="Qv7wDdTZeIyCimLd3heE-73" target="Qv7wDdTZeIyCimLd3heE-161">
          <mxGeometry relative="1" as="geometry" />
        </mxCell>
        <mxCell id="Qv7wDdTZeIyCimLd3heE-322" style="edgeStyle=orthogonalEdgeStyle;rounded=0;orthogonalLoop=1;jettySize=auto;html=1;startArrow=none;startFill=0;endArrow=diamond;endFill=0;" edge="1" parent="1" source="Qv7wDdTZeIyCimLd3heE-205">
          <mxGeometry relative="1" as="geometry">
            <mxPoint x="1630" y="1070" as="targetPoint" />
            <Array as="points">
              <mxPoint x="1720" y="1705" />
              <mxPoint x="1720" y="1070" />
              <mxPoint x="1630" y="1070" />
            </Array>
          </mxGeometry>
        </mxCell>
        <mxCell id="Qv7wDdTZeIyCimLd3heE-325" style="edgeStyle=orthogonalEdgeStyle;rounded=0;orthogonalLoop=1;jettySize=auto;html=1;entryX=1;entryY=0.083;entryDx=0;entryDy=0;entryPerimeter=0;startArrow=none;startFill=0;endArrow=diamondThin;endFill=1;" edge="1" parent="1" source="Qv7wDdTZeIyCimLd3heE-260" target="Qv7wDdTZeIyCimLd3heE-89">
          <mxGeometry relative="1" as="geometry" />
        </mxCell>
        <mxCell id="Qv7wDdTZeIyCimLd3heE-327" value="&amp;lt;&amp;lt;use&amp;gt;&amp;gt;" style="text;html=1;resizable=0;autosize=1;align=center;verticalAlign=middle;points=[];fillColor=#FFFFFF;strokeColor=none;rounded=0;" vertex="1" parent="1">
          <mxGeometry x="3155" y="400" width="60" height="20" as="geometry" />
        </mxCell>
        <mxCell id="Qv7wDdTZeIyCimLd3heE-328" value="" style="edgeStyle=orthogonalEdgeStyle;rounded=0;orthogonalLoop=1;jettySize=auto;html=1;entryX=0.503;entryY=1.032;entryDx=0;entryDy=0;entryPerimeter=0;startArrow=none;startFill=0;endArrow=none;endFill=0;dashed=1;" edge="1" parent="1" source="Qv7wDdTZeIyCimLd3heE-93" target="Qv7wDdTZeIyCimLd3heE-327">
          <mxGeometry relative="1" as="geometry">
            <mxPoint x="3185" y="479.9999999999998" as="sourcePoint" />
            <mxPoint x="3185.87" y="363.6400000000001" as="targetPoint" />
          </mxGeometry>
        </mxCell>
        <mxCell id="Qv7wDdTZeIyCimLd3heE-329" value="&amp;lt;&amp;lt;use&amp;gt;&amp;gt;" style="text;html=1;resizable=0;autosize=1;align=center;verticalAlign=middle;points=[];fillColor=#FFFFFF;strokeColor=none;rounded=0;" vertex="1" parent="1">
          <mxGeometry x="1875" y="810" width="60" height="20" as="geometry" />
        </mxCell>
        <mxCell id="Qv7wDdTZeIyCimLd3heE-330" value="&amp;lt;&amp;lt;use&amp;gt;&amp;gt;" style="text;html=1;resizable=0;autosize=1;align=center;verticalAlign=middle;points=[];fillColor=#FFFFFF;strokeColor=none;rounded=0;" vertex="1" parent="1">
          <mxGeometry x="2060" y="843" width="60" height="20" as="geometry" />
        </mxCell>
        <mxCell id="Qv7wDdTZeIyCimLd3heE-335" value="&amp;lt;&amp;lt;use&amp;gt;&amp;gt;" style="text;html=1;resizable=0;autosize=1;align=center;verticalAlign=middle;points=[];fillColor=#FFFFFF;strokeColor=none;rounded=0;" vertex="1" parent="1">
          <mxGeometry x="3155" y="850" width="60" height="20" as="geometry" />
        </mxCell>
      </root>
    </mxGraphModel>
  </diagram>
</mxfile>
